<svg xmlns="http://www.w3.org/2000/svg" width="42" height="42" viewBox="0 0 42 42">
  <g id="Raggruppa_10416" data-name="Raggruppa 10416" transform="translate(-1384 -5250)">
    <rect id="Rettangolo_1233" data-name="Rettangolo 1233" width="42" height="42" rx="21" transform="translate(1384 5250)" fill="#1877f2"/>
    <g id="Raggruppa_10246" data-name="Raggruppa 10246" transform="translate(1071 2298)">
      <rect id="Rettangolo_1232" data-name="Rettangolo 1232" width="24" height="24" transform="translate(322 2961)" fill="#fff" opacity="0"/>
      <path id="Tracciato_2909" data-name="Tracciato 2909" d="M10.5.042a10.542,10.542,0,0,0-1.751,20.93V12.785H6.216V9.84H8.749V7.668a3.542,3.542,0,0,1,3.772-3.894,20.817,20.817,0,0,1,2.262.116V6.524H13.23c-1.217,0-1.452.581-1.452,1.434v1.88h2.905L14.3,12.784H11.777v8.258A10.541,10.541,0,0,0,10.5.042Z" transform="translate(323.5 2962.458)" fill="#fff"/>
    </g>
  </g>
</svg>
