<svg xmlns="http://www.w3.org/2000/svg" width="42" height="42" viewBox="0 0 42 42">
  <g id="Raggruppa_10418" data-name="Raggruppa 10418" transform="translate(-1498 -5250)">
    <rect id="NoPath_-_Copia_3_" data-name="NoPath - Copia (3)" width="42" height="42" rx="21" transform="translate(1498 5250)" fill="red"/>
    <g id="Raggruppa_10237" data-name="Raggruppa 10237" transform="translate(225 1854)">
      <rect id="Rettangolo_1231" data-name="Rettangolo 1231" width="24" height="24" transform="translate(1282 3405)" fill="#fff" opacity="0"/>
      <g id="Raggruppa_10236" data-name="Raggruppa 10236" transform="translate(-1.5 -1.012)">
        <path id="Tracciato_2930" data-name="Tracciato 2930" d="M28.561,36.31A2.639,2.639,0,0,0,26.7,34.442C25.067,34,18.5,34,18.5,34s-6.567,0-8.2.442A2.639,2.639,0,0,0,8.439,36.31a29.707,29.707,0,0,0,0,10.175A2.639,2.639,0,0,0,10.3,48.354c1.638.442,8.2.442,8.2.442s6.567,0,8.2-.442a2.639,2.639,0,0,0,1.857-1.869,29.707,29.707,0,0,0,0-10.175Z" transform="translate(1277 3376.512)" fill="#fff"/>
        <path id="Tracciato_2931" data-name="Tracciato 2931" d="M78,76.076l5.489-3.122L78,69.831Z" transform="translate(1215.353 3344.956)" fill="red"/>
      </g>
    </g>
  </g>
</svg>
