<svg xmlns="http://www.w3.org/2000/svg" width="42" height="42" viewBox="0 0 42 42">
  <g id="Raggruppa_11305" data-name="Raggruppa 11305" transform="translate(-1498 -5250)">
    <rect id="NoPath_-_Copia_3_" data-name="NoPath - Copia (3)" width="42" height="42" rx="21" transform="translate(1498 5250)" fill="#cb1f27"/>
    <g id="Raggruppa_10237" data-name="Raggruppa 10237" transform="translate(225 1854)">
      <rect id="Rettangolo_1231" data-name="Rettangolo 1231" width="24" height="24" transform="translate(1282 3405)" fill="#fff" opacity="0"/>
      <g id="pinterest-seeklogo.com" transform="translate(1282 3405)">
        <path id="Tracciato_3155" data-name="Tracciato 3155" d="M0,12A12,12,0,0,0,7.183,22.991a10.543,10.543,0,0,1,.209-2.756c.231-.974,1.544-6.539,1.544-6.539a4.61,4.61,0,0,1-.383-1.9c0-1.778,1.031-3.106,2.314-3.106a1.607,1.607,0,0,1,1.619,1.8,25.837,25.837,0,0,1-1.06,4.259,1.857,1.857,0,0,0,1.894,2.311c2.274,0,3.8-2.92,3.8-6.38,0-2.63-1.771-4.6-4.993-4.6a5.682,5.682,0,0,0-5.908,5.747,3.465,3.465,0,0,0,.791,2.354.582.582,0,0,1,.172.669c-.058.221-.19.752-.244.963a.414.414,0,0,1-.6.3c-1.677-.684-2.457-2.521-2.457-4.585,0-3.409,2.875-7.5,8.576-7.5,4.582,0,7.6,3.315,7.6,6.874,0,4.707-2.617,8.224-6.475,8.224a3.441,3.441,0,0,1-2.932-1.5s-.7,2.765-.844,3.3A10.048,10.048,0,0,1,8.6,23.508,12,12,0,1,0,0,12Z" fill="#fff"/>
      </g>
    </g>
  </g>
</svg>
