<?xml version="1.0" encoding="utf-8"?>
<!-- Generator: Adobe Illustrator 26.0.3, SVG Export Plug-In . SVG Version: 6.00 Build 0)  -->
<svg version="1.1" id="Livello_1" xmlns="http://www.w3.org/2000/svg" xmlns:xlink="http://www.w3.org/1999/xlink" x="0px" y="0px"
	 viewBox="0 0 86 86" style="enable-background:new 0 0 86 86;" xml:space="preserve">
<style type="text/css">
	.st0{fill:#FFFFFF;fill-opacity:0;}
	.st1{fill:#333333;}
</style>
<g id="Raggruppa_10394" transform="translate(-688 -4769)">
	<rect id="Rettangolo_4" x="688" y="4769" class="st0" width="86" height="86"/>
	<g id="fi-rr-user" transform="translate(704.5 4781)">
		<path class="st1" d="M12.6,15.5c0,7.6,6.3,13.7,13.8,13.7c0,0,0,0,0.1,0h0h0c0,0,0,0,0.1,0c7.6,0,13.8-6.2,13.8-13.8
			C40.3,7.9,34,1.7,26.3,1.8C18.7,1.9,12.7,7.9,12.6,15.5z M26.5,3.4L26.5,3.4c3.2,0,6.3,1.3,8.5,3.6s3.5,5.4,3.4,8.6
			c-0.1,6.6-5.5,12-12.1,12c0,0-0.1,0-0.1,0c-6.6-0.1-12-5.5-12-12.1c0-3.3,1.3-6.3,3.6-8.6S23.3,3.4,26.5,3.4z"/>
		<path class="st1" d="M26.5,39.6c0.1,0,0.1,0,0.2,0c10.8,0.1,19.7,9,19.8,19.8c0,0.5,0.4,0.9,0.9,0.9s0.9-0.4,0.9-0.9
			c-0.1-11.9-9.8-21.5-21.6-21.5c0,0-0.1,0-0.1,0h0c0,0-0.1,0-0.1,0c-11.9,0-21.6,9.6-21.6,21.5c0,0.5,0.4,0.9,0.9,0.9
			c0.5,0,0.9-0.4,0.9-0.9c0.1-5.4,2.2-10.4,6-14.1C16.3,41.6,21.2,39.6,26.5,39.6z"/>
	</g>
</g>
</svg>
