<?xml version="1.0" encoding="utf-8"?>
<!-- Generator: Adobe Illustrator 26.0.3, SVG Export Plug-In . SVG Version: 6.00 Build 0)  -->
<svg version="1.1" id="Livello_1" xmlns="http://www.w3.org/2000/svg" xmlns:xlink="http://www.w3.org/1999/xlink" x="0px" y="0px"
	 viewBox="0 0 86 86" style="enable-background:new 0 0 86 86;" xml:space="preserve">
<style type="text/css">
	.st0{fill:#FFFFFF;fill-opacity:0;}
	.st1{fill:#333333;}
</style>
<g id="Raggruppa_10394" transform="translate(-688 -4769)">
	<rect id="Rettangolo_4" x="688" y="4769" class="st0" width="86" height="86"/>
	<g id="fi-rr-interrogation" transform="translate(700 4781)">
		<path class="st1" d="M31,1.8C14.9,1.8,1.8,14.9,1.8,31c0,16.1,13.1,29.2,29.2,29.2c16.1,0,29.2-13.1,29.2-29.2
			C60.2,14.9,47.1,1.8,31,1.8z M31,58.6C15.8,58.6,3.4,46.2,3.4,31C3.4,15.8,15.8,3.4,31,3.4c15.2,0,27.6,12.4,27.6,27.6
			C58.6,46.2,46.2,58.6,31,58.6z"/>
		<path class="st1" d="M39.3,25.6c0.6-2.2,0.4-4.5-0.7-6.5c-1.3-2.3-3.4-3.9-6-4.3l0,0c-2.3-0.4-4.5,0.1-6.4,1.4
			c-1.9,1.3-3.2,3.3-3.6,5.5c-0.1,0.5-0.1,1-0.1,1.5c0,0.5,0.4,0.8,0.8,0.8s0.8-0.4,0.8-0.8c0-1.8,0.7-3.6,2-4.9s3-2,4.9-2
			c0,0,0,0,0,0c0.4,0,0.9,0,1.3,0.1c2.8,0.5,5,2.7,5.5,5.5c0.6,3-0.8,5.9-3.5,7.4c-2.6,1.5-4.3,4.4-4.2,7.5l0,2
			c0,0.5,0.4,0.8,0.8,0.8s0.8-0.4,0.8-0.8v-1.9c-0.1-2.4,1.1-4.7,3.2-6l0.1-0.1C37.2,29.7,38.6,27.8,39.3,25.6z"/>
		<rect x="30.2" y="45.7" class="st1" width="1.7" height="1.7"/>
	</g>
</g>
</svg>
