<?xml version="1.0" encoding="utf-8"?>
<!-- Generator: Adobe Illustrator 26.0.3, SVG Export Plug-In . SVG Version: 6.00 Build 0)  -->
<svg version="1.1" id="Livello_1" xmlns="http://www.w3.org/2000/svg" xmlns:xlink="http://www.w3.org/1999/xlink" x="0px" y="0px"
	 viewBox="0 0 120 86" style="enable-background:new 0 0 120 86;" xml:space="preserve">
<style type="text/css">
	.st0{fill:none;}
	.st1{fill:#FFFFFF;}
	.st2{fill:#333333;}
</style>
<g>
	<rect class="st0" width="120" height="86"/>
	<g id="fi-rr-star-3">
		<path class="st1" d="M88,44l-9.9,7.3l3.7,11.6l0,0.1c0.1,0.2,0.1,0.5,0.2,0.7c0.1,0.3,0.1,0.6,0.1,0.8c0.2,2-0.3,4-1.5,5.6
			c-2.6,3.5-7.5,4.2-11,1.7L60,64.5l-9.7,7.2c-2,1.5-4.7,1.9-7.1,1.1c-2-0.6-3.6-2-4.6-3.9c-0.5-1-0.8-2-0.8-3c0-0.3,0-0.6,0-0.9
			c0-0.3,0-0.6,0.1-0.9c0.1-0.4,0.2-0.8,0.3-1.2l3.8-11.7L32,44c-2-1.5-3.2-3.8-3.2-6.3c0-4.3,3.5-7.9,7.9-7.9h12.2l0.1-0.2
			l3.6-11.3c0.8-2.4,2.7-4.3,5.1-5.1c2-0.6,4.1-0.5,6,0.5s3.2,2.6,3.9,4.6l3.6,11.3l0.1,0.2h12.3c3.4,0,6.4,2.2,7.4,5.4v0
			C92,38.5,90.8,42,88,44z"/>
		<path class="st2" d="M113,35c-1-3.3-4.1-5.6-7.6-5.5h-9.2l-2.8-8.7c-0.6-2-2-3.7-3.9-4.7c-1.9-1-4.1-1.2-6.1-0.5
			c-2.5,0.8-4.4,2.7-5.2,5.2l-2.4,7.5h-3.5l-3.4-10.5c-0.8-2.4-2.4-4.3-4.6-5.5c-2.2-1.1-4.8-1.3-7.1-0.6c-2.9,0.9-5.1,3.2-6,6
			l-3.4,10.5h-5.6l-2.4-7.5c-1.3-4.2-5.8-6.5-10-5.2c-2.4,0.8-4.4,2.7-5.2,5.2l-2.8,8.7h-9.2c-4.4,0-8,3.6-8,8
			c0,2.5,1.2,4.9,3.3,6.4l7.5,5.5l-2.9,8.8c-0.7,2-0.5,4.2,0.5,6.1c1,1.9,2.6,3.3,4.7,4c0.8,0.3,1.6,0.4,2.5,0.4
			c1.7,0,3.3-0.5,4.7-1.5l7.4-5.4l4.1,3c-0.1,1.7,0.2,3.3,1,4.8c1.1,2.2,3.1,3.9,5.5,4.7c0.9,0.3,1.9,0.5,2.9,0.5
			c2,0,3.9-0.6,5.6-1.8l8.8-6.5l8.9,6.5c4.1,3.1,10,2.2,13.1-2c1.6-2.2,2.2-4.9,1.6-7.5l2.3-1.7l7.4,5.4c3.5,2.6,8.5,1.9,11.1-1.7
			c1.5-2.1,2-4.8,1.2-7.2l-2.9-8.8l7.5-5.5C113,41.9,114.1,38.3,113,35z M36.7,62.5c-0.1,0.2-0.1,0.4-0.2,0.7l-4.4-3.2L23.8,66
			c-1.7,1.2-3.8,1.6-5.8,0.9c-1.7-0.5-3-1.7-3.8-3.2c-0.8-1.5-0.9-3.3-0.4-4.9l3.2-9.9l-8.4-6.2C7,41.5,6,39.6,6,37.5
			c0-1.7,0.7-3.4,1.9-4.6c1.2-1.2,2.8-1.9,4.6-1.9h10.3l3.1-9.8c0.6-2,2.2-3.6,4.2-4.2c3.4-1.1,7,0.8,8.1,4.2l2.2,7h-3.9
			c-5.2,0-9.4,4.2-9.4,9.4c0,3,1.4,5.8,3.8,7.5l9,6.6L36.7,62.5z M80.7,70c-2.6,3.5-7.5,4.2-11,1.7L60,64.5l-9.7,7.2
			c-2,1.5-4.7,1.9-7.1,1.1c-2-0.6-3.6-2-4.6-3.9c-0.5-1-0.8-2-0.8-3c0-0.3,0-0.6,0-0.9c0-0.3,0-0.6,0.1-0.9c0.1-0.4,0.2-0.8,0.3-1.2
			l3.8-11.7L32,44c-2-1.5-3.2-3.8-3.2-6.3c0-4.3,3.5-7.9,7.9-7.9h12.2l0.1-0.2l3.6-11.3c0.8-2.4,2.7-4.3,5.1-5.1
			c2-0.6,4.1-0.5,6,0.5s3.2,2.6,3.9,4.6l3.6,11.3l0.1,0.2h12.3c3.4,0,6.4,2.2,7.4,5.4v0c1.1,3.3,0,6.8-2.8,8.8l-9.9,7.3l3.7,11.6
			l0,0.1c0.1,0.2,0.1,0.5,0.2,0.7c0.1,0.3,0.1,0.6,0.1,0.8C82.4,66.4,81.9,68.4,80.7,70z M109.2,42.7l-8.4,6.1l3.2,9.9
			c0.6,2,0.3,4.2-0.9,5.8c-2.1,2.9-6.2,3.5-9.1,1.4l-8.2-6.1l-2.7,2l-3.2-10.1l9.1-6.6c3.3-2.4,4.7-6.6,3.4-10.5
			c-1.2-3.9-4.8-6.5-8.8-6.5h-6.1l2.2-7c0.6-2,2.2-3.6,4.2-4.2c1.6-0.5,3.4-0.4,4.9,0.4c1.5,0.8,2.7,2.1,3.2,3.8l3.1,9.8h10.3
			c2.8-0.1,5.3,1.8,6.1,4.4v0C112.5,38.2,111.6,41.1,109.2,42.7z"/>
	</g>
</g>
</svg>
