<?xml version="1.0" encoding="utf-8"?>
<!-- Generator: Adobe Illustrator 26.0.3, SVG Export Plug-In . SVG Version: 6.00 Build 0)  -->
<svg version="1.1" id="Livello_1" xmlns="http://www.w3.org/2000/svg" xmlns:xlink="http://www.w3.org/1999/xlink" x="0px" y="0px"
	 viewBox="0 0 86 86" style="enable-background:new 0 0 86 86;" xml:space="preserve">
<style type="text/css">
	.st0{fill:#FFFFFF;fill-opacity:0;}
	.st1{fill:#333333;}
</style>
<g id="Raggruppa_10394" transform="translate(-688 -4769)">
	<rect id="Rettangolo_4" x="688" y="4769" class="st0" width="86" height="86"/>
	<path class="st1" d="M749.1,4837.7C749.1,4837.7,749.1,4837.7,749.1,4837.7c6.1,0,11.1-5,11.2-11.1v-17.9c0-2.9-1.2-5.8-3.3-7.8
		l0,0c-2.1-2.1-4.9-3.2-7.8-3.2c0,0,0,0-0.1,0H703l14.1-14c0.2-0.2,0.2-0.4,0.2-0.6c0-0.1,0-0.4-0.2-0.6c-0.3-0.3-0.9-0.3-1.2,0
		l-12.8,12.7c-0.9,0.9-1.4,2-1.4,3.3c0,1.2,0.5,2.4,1.3,3.3l12.8,12.7c0.3,0.3,0.9,0.3,1.2,0c0.3-0.3,0.3-0.8,0-1.1l-14.2-14h46.1
		c0,0,0,0,0,0c2.5,0,4.9,1,6.7,2.7c1.8,1.8,2.8,4.2,2.8,6.7v17.9c0,5.2-4.3,9.4-9.5,9.4c0,0,0,0,0,0h-36.2h0c-0.3,0-0.5,0.1-0.6,0.2
		c-0.1,0.1-0.2,0.3-0.2,0.6c0,0.4,0.4,0.8,0.8,0.8H749.1z"/>
</g>
</svg>
