<svg xmlns="http://www.w3.org/2000/svg" width="56" height="36" viewBox="0 0 56 36">
  <g id="Raggruppa_11285" data-name="Raggruppa 11285" transform="translate(18789 17815)">
    <rect id="Rettangolo_3707" data-name="Rettangolo 3707" width="56" height="36" transform="translate(-18789 -17815)" fill="none"/>
    <g id="layer1" transform="translate(-18839 -18819.377)">
      <path id="path3082" d="M249.14,1547.878v-7.047H256.6l.8,1.044.827-1.044h27.085v6.561a3.127,3.127,0,0,1-1.527.486h-15l-.9-1.111v1.111h-2.958v-1.9a2.481,2.481,0,0,1-1.278.265h-1.007v1.632h-4.478l-.8-1.066-.812,1.066Z" transform="translate(-184.927 -517.219)" fill="#fff"/>
      <path id="path3080" d="M55.5,1339.546l1.683-3.923h2.91l.955,2.2v-2.2h3.617l.568,1.588.551-1.588H82.023v.8a3.5,3.5,0,0,1,2.257-.8l5.269.018.938,2.169v-2.187h3.027l.833,1.245v-1.245H97.4v7.047H94.347l-.8-1.25v1.25H89.1l-.447-1.111h-1.2l-.44,1.111H84a2.982,2.982,0,0,1-1.979-.782v.782H77.475l-.9-1.111v1.111H59.661l-.447-1.111H58.022l-.444,1.111H55.5Z" transform="translate(0 -321.246)" fill="#fff"/>
      <path id="path3046" d="M57.962,1354.93l-2.27,5.277H57.17l.419-1.057h2.434l.417,1.057h1.51l-2.267-5.277Zm.84,1.228.742,1.847H58.058Z" transform="translate(-0.184 -339.684)" fill="#016fd0"/>
      <path id="path3048" d="M198.223,1360.183v-5.277l2.1.008,1.221,3.4,1.192-3.41h2.083v5.277H203.5v-3.888l-1.4,3.888h-1.157l-1.4-3.888v3.888Z" transform="translate(-136.301 -339.66)" fill="#016fd0"/>
      <path id="path3050" d="M364.861,1360.183v-5.277h4.3v1.18h-2.972v.9h2.9v1.111h-2.9v.937h2.972v1.146Z" transform="translate(-295.44 -339.66)" fill="#016fd0"/>
      <path id="path3052" d="M477.5,1354.93v5.277h1.319v-1.875h.556l1.582,1.875h1.612l-1.736-1.944a1.607,1.607,0,0,0,1.447-1.621,1.707,1.707,0,0,0-1.844-1.712Zm1.319,1.181h1.508a.605.605,0,0,1,.625.555.6.6,0,0,1-.605.556h-1.527Z" transform="translate(-403.008 -339.683)" fill="#016fd0"/>
      <path id="path3054" d="M597.034,1360.183h-1.347v-5.277h1.347Z" transform="translate(-515.879 -339.66)" fill="#016fd0"/>
      <path id="path3056" d="M642.444,1360.182h-.291a2.325,2.325,0,0,1-2.261-2.616,2.418,2.418,0,0,1,2.621-2.66h1.458v1.25H642.46a1.269,1.269,0,0,0-1.231,1.423,1.292,1.292,0,0,0,1.423,1.451H643Z" transform="translate(-558.095 -339.66)" fill="#016fd0"/>
      <path id="path3058" d="M712.221,1354.93l-2.27,5.277h1.478l.419-1.057h2.435l.417,1.057h1.51l-2.267-5.277Zm.84,1.228L713.8,1358h-1.486Z" transform="translate(-625.002 -339.684)" fill="#016fd0"/>
      <path id="path3060" d="M852.433,1360.183v-5.277h1.677l2.141,3.315v-3.315h1.319v5.277h-1.623l-2.2-3.4v3.4Z" transform="translate(-761.072 -339.66)" fill="#016fd0"/>
      <path id="path3062" d="M269.2,1565.4v-5.277h4.3v1.18h-2.972v.9h2.9v1.111h-2.9v.937H273.5v1.146Z" transform="translate(-204.082 -535.646)" fill="#016fd0"/>
      <path id="path3064" d="M737.947,1565.4v-5.277h4.3v1.18H739.28v.9h2.888v1.111H739.28v.937h2.972v1.146Z" transform="translate(-651.737 -535.646)" fill="#016fd0"/>
      <path id="path3066" d="M367.515,1565.4l2.1-2.606-2.146-2.671h1.662l1.278,1.651,1.282-1.651h1.6l-2.118,2.639,2.1,2.638H371.6l-1.241-1.625-1.211,1.625Z" transform="translate(-297.927 -535.645)" fill="#016fd0"/>
      <path id="path3068" d="M499.869,1560.14v5.277h1.354v-1.666h1.389a1.825,1.825,0,0,0,2.066-1.836,1.737,1.737,0,0,0-1.894-1.775Zm1.354,1.193h1.462a.6.6,0,0,1,.651.607.609.609,0,0,1-.655.608h-1.458Z" transform="translate(-424.373 -535.659)" fill="#016fd0"/>
      <path id="path3072" d="M619.448,1560.12v5.277h1.319v-1.875h.555l1.582,1.875h1.612l-1.736-1.944a1.607,1.607,0,0,0,1.447-1.621,1.707,1.707,0,0,0-1.844-1.712Zm1.319,1.18h1.508a.605.605,0,0,1,.625.556.6.6,0,0,1-.605.555h-1.528Z" transform="translate(-538.571 -535.64)" fill="#016fd0"/>
      <path id="path3074" d="M843.632,1565.4v-1.146h2.64c.391,0,.56-.211.56-.443s-.169-.446-.56-.446h-1.193a1.475,1.475,0,0,1-1.615-1.58c0-.846.529-1.662,2.07-1.662H848.1l-.556,1.187h-2.222c-.425,0-.555.223-.555.436a.46.46,0,0,0,.486.46h1.25a1.448,1.448,0,0,1,1.658,1.515,1.582,1.582,0,0,1-1.721,1.68Z" transform="translate(-752.507 -535.646)" fill="#016fd0"/>
      <path id="path3076" d="M951.229,1565.4v-1.146h2.64c.391,0,.56-.211.56-.443s-.169-.446-.56-.446h-1.193a1.475,1.475,0,0,1-1.615-1.58c0-.846.529-1.662,2.07-1.662H955.7l-.556,1.187h-2.222c-.425,0-.555.223-.555.436a.46.46,0,0,0,.486.46h1.25a1.448,1.448,0,0,1,1.658,1.515,1.582,1.582,0,0,1-1.721,1.68Z" transform="translate(-855.262 -535.646)" fill="#016fd0"/>
    </g>
  </g>
</svg>
