<svg xmlns="http://www.w3.org/2000/svg" width="56" height="36" viewBox="0 0 56 36">
  <g id="Raggruppa_10752" data-name="Raggruppa 10752" transform="translate(18789 17845)">
    <rect id="Rettangolo_3706" data-name="Rettangolo 3706" width="56" height="36" transform="translate(-18789 -17845)" fill="none"/>
    <g id="Mastercard-logo" transform="translate(-18774.5 -17837.5)">
      <path id="XMLID_1775_" d="M53.353,662.412v-1.394a.817.817,0,0,0-.882-.882.914.914,0,0,0-.79.4.815.815,0,0,0-.744-.4.748.748,0,0,0-.649.325v-.279H49.8v2.23h.487v-1.231c0-.4.208-.582.533-.582s.487.208.487.582v1.231h.487v-1.231a.514.514,0,0,1,.533-.582c.325,0,.487.208.487.582v1.231Zm7.225-2.23h-.79v-.674H59.3v.674H58.86v.441H59.3v1.023c0,.512.208.812.766.812a1.308,1.308,0,0,0,.6-.162l-.141-.419a.779.779,0,0,1-.419.116c-.233,0-.325-.141-.325-.371v-1h.79v-.441Zm4.135-.049a.661.661,0,0,0-.582.325v-.278h-.487v2.23h.487v-1.256c0-.371.162-.582.465-.582a1.49,1.49,0,0,1,.3.046l.141-.466a1.952,1.952,0,0,0-.327-.019Zm-6.249.233a1.6,1.6,0,0,0-.907-.233c-.557,0-.928.279-.928.72,0,.371.279.582.766.65l.233.024c.254.046.4.117.4.233,0,.163-.187.279-.511.279a1.283,1.283,0,0,1-.744-.233l-.233.371a1.632,1.632,0,0,0,.953.279c.649,0,1.023-.3,1.023-.72,0-.4-.3-.6-.766-.674l-.233-.024c-.208-.024-.371-.07-.371-.208,0-.162.162-.254.419-.254a1.677,1.677,0,0,1,.7.187l.206-.395Zm12.96-.233a.661.661,0,0,0-.582.325v-.278h-.487v2.23h.487v-1.256c0-.371.162-.582.465-.582a1.49,1.49,0,0,1,.3.046l.141-.46a1.491,1.491,0,0,0-.327-.024ZM65.2,661.3a1.116,1.116,0,0,0,1.185,1.161,1.167,1.167,0,0,0,.79-.254l-.233-.4a.931.931,0,0,1-.582.209.66.66,0,0,1-.674-.72.684.684,0,0,1,.674-.72.954.954,0,0,1,.582.208l.233-.395a1.153,1.153,0,0,0-.79-.255A1.115,1.115,0,0,0,65.2,661.3Zm4.506,0v-1.115h-.487v.279a.841.841,0,0,0-.7-.325,1.162,1.162,0,0,0,0,2.322.788.788,0,0,0,.7-.325v.279h.487V661.3Zm-1.789,0a.675.675,0,1,1,1.348,0,.675.675,0,1,1-1.348,0Zm-5.829-1.164a1.162,1.162,0,0,0,.024,2.322,1.414,1.414,0,0,0,.907-.3l-.233-.349a1.106,1.106,0,0,1-.65.232.628.628,0,0,1-.674-.533h1.648v-.187a1.028,1.028,0,0,0-1.023-1.183Zm0,.419a.543.543,0,0,1,.557.533H61.485a.587.587,0,0,1,.6-.533Zm12.1.744v-2H73.7v1.161a.841.841,0,0,0-.7-.325,1.162,1.162,0,0,0,0,2.322.788.788,0,0,0,.7-.325v.279h.487V661.3Zm-1.789,0a.675.675,0,1,1,1.348,0,.675.675,0,1,1-1.348,0Zm-16.307,0v-1.115h-.487v.279a.841.841,0,0,0-.7-.325,1.162,1.162,0,0,0,0,2.322.788.788,0,0,0,.7-.325v.279h.487V661.3Zm-1.81,0a.675.675,0,1,1,1.348,0,.675.675,0,1,1-1.348,0Z" transform="translate(-48.452 -641.458)"/>
      <g id="Raggruppa_10754" data-name="Raggruppa 10754" transform="translate(0 0)">
        <rect id="rect19" width="7.317" height="13.147" transform="translate(9.85 1.789)" fill="#ff5a00"/>
        <path id="XMLID_330_" d="M10.338,8.362A8.386,8.386,0,0,1,13.52,1.789,8.359,8.359,0,1,0,8.362,16.724a8.317,8.317,0,0,0,5.158-1.789A8.345,8.345,0,0,1,10.338,8.362Z" transform="translate(0 0)" fill="#eb001b"/>
        <path id="path22" d="M513.12,8.362a8.354,8.354,0,0,1-13.52,6.573,8.38,8.38,0,0,0,0-13.147,8.354,8.354,0,0,1,13.52,6.573Z" transform="translate(-486.08 0)" fill="#f79e1b"/>
      </g>
    </g>
  </g>
</svg>
