<svg xmlns="http://www.w3.org/2000/svg" width="56" height="36" viewBox="0 0 56 36">
  <g id="Raggruppa_11280" data-name="Raggruppa 11280" transform="translate(18789 17815)">
    <rect id="Rettangolo_3707" data-name="Rettangolo 3707" width="56" height="36" transform="translate(-18789 -17815)" fill="none"/>
    <g id="paypal-seeklogo.com" transform="translate(-18789.002 -17804)">
      <path id="Tracciato_3105" data-name="Tracciato 3105" d="M173.33,386.87h3.827c2.055,0,2.828,1.04,2.709,2.568-.2,2.523-1.723,3.919-3.746,3.919H175.1c-.278,0-.464.184-.539.682l-.434,2.894c-.029.188-.127.3-.276.311h-2.4c-.226,0-.306-.173-.247-.547l1.466-9.278A.583.583,0,0,1,173.33,386.87Z" transform="translate(-168.441 -383.676)" fill="#009ee3" fill-rule="evenodd"/>
      <path id="Tracciato_3106" data-name="Tracciato 3106" d="M315,385.13a2.1,2.1,0,0,1,2.319,2.446c-.2,2.074-1.309,3.222-3.062,3.227h-1.532c-.22,0-.327.18-.384.548l-.3,1.884c-.044.284-.191.425-.406.425h-1.425c-.227,0-.306-.145-.256-.47l1.177-7.55c.058-.371.2-.51.451-.51H315Zm-2.321,4.042h1.161c.726-.028,1.208-.53,1.257-1.437a.877.877,0,0,0-.95-.958l-1.092,0-.374,2.391Zm8.516,3.91c.13-.119.263-.18.244-.034l-.046.35c-.024.183.048.28.218.28h1.266c.213,0,.317-.086.369-.416l.78-4.9c.04-.246-.021-.367-.207-.367h-1.393c-.125,0-.187.07-.219.262l-.051.3c-.027.157-.1.185-.166.027-.236-.559-.839-.81-1.679-.79a3.486,3.486,0,0,0-3.411,3.424,2.354,2.354,0,0,0,2.333,2.625,2.5,2.5,0,0,0,1.966-.761h0Zm-1.061-.754a1.273,1.273,0,0,1-1.3-1.493,1.818,1.818,0,0,1,1.748-1.493,1.273,1.273,0,0,1,1.3,1.493,1.817,1.817,0,0,1-1.748,1.493Zm6.371-4.346h-1.284c-.265,0-.372.2-.288.441l1.594,4.668-1.564,2.222c-.131.186-.03.355.155.355h1.443a.442.442,0,0,0,.429-.21l4.9-7.033c.151-.216.08-.444-.168-.444h-1.366c-.234,0-.328.093-.462.287l-2.045,2.963-.914-2.97a.391.391,0,0,0-.433-.279Z" transform="translate(-293.497 -382.108)" fill="#113984" fill-rule="evenodd"/>
      <path id="Tracciato_3107" data-name="Tracciato 3107" d="M537.669,385.112a2.1,2.1,0,0,1,2.319,2.446c-.2,2.074-1.309,3.222-3.062,3.227h-1.531c-.22,0-.327.18-.384.548l-.3,1.884c-.044.285-.191.425-.406.425h-1.425c-.227,0-.306-.145-.256-.47l1.179-7.552c.058-.371.2-.51.451-.51h3.412Zm-2.321,4.042h1.161c.726-.028,1.208-.53,1.256-1.437a.877.877,0,0,0-.95-.958l-1.092,0-.374,2.391Zm8.516,3.91c.13-.119.263-.18.244-.034l-.046.35c-.024.183.048.28.218.28h1.266c.213,0,.317-.086.369-.416l.78-4.9c.04-.246-.021-.366-.207-.366H545.1c-.126,0-.187.07-.219.262l-.051.3c-.027.157-.1.185-.166.027-.236-.559-.839-.81-1.679-.79a3.485,3.485,0,0,0-3.411,3.424,2.354,2.354,0,0,0,2.333,2.625,2.5,2.5,0,0,0,1.966-.761h0Zm-1.06-.754a1.273,1.273,0,0,1-1.3-1.493,1.818,1.818,0,0,1,1.748-1.493,1.273,1.273,0,0,1,1.3,1.493,1.818,1.818,0,0,1-1.749,1.493Zm5.841,1.357h-1.462a.173.173,0,0,1-.179-.2l1.284-8.136a.252.252,0,0,1,.243-.2h1.462a.173.173,0,0,1,.179.2l-1.284,8.136a.252.252,0,0,1-.243.2Z" transform="translate(-494.172 -382.09)" fill="#009ee3" fill-rule="evenodd"/>
      <path id="Tracciato_3108" data-name="Tracciato 3108" d="M145.975,354.54h3.831a4.787,4.787,0,0,1,3.214.79,2.6,2.6,0,0,1,.8,2.173c-.235,2.925-1.985,4.564-4.332,4.564H147.6c-.322,0-.534.213-.625.79l-.527,3.359c-.035.217-.128.346-.3.362H143.79c-.262,0-.355-.2-.286-.634l1.7-10.765A.68.68,0,0,1,145.975,354.54Z" transform="translate(-143.48 -354.54)" fill="#113984" fill-rule="evenodd"/>
      <path id="Tracciato_3109" data-name="Tracciato 3109" d="M179.43,391.644l.669-4.235a.585.585,0,0,1,.667-.549h3.827a3.732,3.732,0,0,1,1.547.282c-.384,2.6-2.068,4.05-4.273,4.05H179.98A.557.557,0,0,0,179.43,391.644Z" transform="translate(-175.877 -383.667)" fill="#172c70" fill-rule="evenodd"/>
    </g>
  </g>
</svg>
