<svg xmlns="http://www.w3.org/2000/svg" width="86.158" height="16.296" viewBox="0 0 86.158 16.296">
  <g id="scalapay-seeklogo.com" transform="translate(-1.262 -1.595)">
    <path id="Tracciato_3118" data-name="Tracciato 3118" d="M7.563,20.742a.717.717,0,0,1-.474-.191,1.393,1.393,0,0,1-.136-.15L1.537,14.228c-.045-.052-.091-.1-.132-.157a.7.7,0,0,1,0-.843,1.866,1.866,0,0,1,.139-.15L3.956,10.6c.049-.049.094-.1.146-.143a.7.7,0,0,1,.909,0c.066.059.125.125.188.188l1.692,1.741.185.188a.672.672,0,0,0,.306.164.665.665,0,0,0,.6-.139c.066-.056.125-.122.188-.185l1.65-1.7c.063-.063.122-.129.188-.188a.7.7,0,0,1,.93,0c.052.045.1.094.146.143l2.385,2.462.1.1a.7.7,0,0,1,.035.912l-.115.132q-2.646,3.033-5.3,6.065c-.056.066-.111.136-.174.2A.721.721,0,0,1,7.563,20.742Z" transform="translate(0 -5.664)"/>
    <path id="Tracciato_3119" data-name="Tracciato 3119" d="M166.72,18.587V12.463a.108.108,0,0,1,.08-.073h1.845c.091,0,.129.038.132.122s0,.174,0,.265v.174c0,.059.052.042.07.028l.219-.15a3.506,3.506,0,0,1,1.783-.6,3.722,3.722,0,0,1,3.339,1.588,4.2,4.2,0,0,1,.762,1.741,4.707,4.707,0,0,1,.1,1.1,4.62,4.62,0,0,1-.592,2.214,4,4,0,0,1-3.952,1.971,3.113,3.113,0,0,1-1.306-.484l-.247-.16a.056.056,0,0,0-.08.049v4.38c0,.164-.021.185-.185.185h-1.817c-.111,0-.143-.031-.146-.136s0-.115,0-.174V18.587Zm2.155-2.04h0v1.111a.369.369,0,0,0,.087.244,2.35,2.35,0,0,0,.752.634,2.239,2.239,0,0,0,1.7.188,2.012,2.012,0,0,0,1.32-1.222,2.576,2.576,0,0,0-.233-2.35,1.932,1.932,0,0,0-1.222-.843,2.145,2.145,0,0,0-.843,0,2.437,2.437,0,0,0-1.48.87.39.39,0,0,0-.1.265C168.875,15.806,168.875,16.175,168.875,16.547Z" transform="translate(-107.851 -6.925)"/>
    <path id="Tracciato_3120" data-name="Tracciato 3120" d="M143.974,16.537v3.809c0,.348.035.348-.327.348h-1.521c-.2,0-.216,0-.223-.216V20.13s-.028-.028-.045-.028a.112.112,0,0,0-.052.021l-.118.087a3.273,3.273,0,0,1-2.054.651,3.962,3.962,0,0,1-3.322-1.877,4.637,4.637,0,0,1-.651-1.925,4.7,4.7,0,0,1,.306-2.3,4.1,4.1,0,0,1,1.309-1.769,3.6,3.6,0,0,1,1.741-.752,3.649,3.649,0,0,1,2.646.616l.171.108a.063.063,0,0,0,.049-.021.087.087,0,0,0,0-.052v-.233c0-.279,0-.285.272-.285h1.521a1.023,1.023,0,0,1,.205.017.108.108,0,0,1,.059.052.181.181,0,0,1,0,.087v.324Zm-2.155,0h0V15.423a.369.369,0,0,0-.094-.265,2.482,2.482,0,0,0-1.2-.8,2.253,2.253,0,0,0-1.1-.059,1.911,1.911,0,0,0-1.236.843,2.329,2.329,0,0,0-.38.971,2.437,2.437,0,0,0,.205,1.511,2.033,2.033,0,0,0,1.191,1.065,2.089,2.089,0,0,0,.776.1,2.291,2.291,0,0,0,1.762-.9.348.348,0,0,0,.084-.244c-.017-.369-.014-.742-.014-1.111Z" transform="translate(-87.585 -6.911)"/>
    <path id="Tracciato_3121" data-name="Tracciato 3121" d="M202.941,16.518V20.56c0,.091-.038.115-.129.122h-1.8a.1.1,0,0,1-.111-.108v-.379a.17.17,0,0,0-.017-.084s-.038-.024-.049-.017a1.305,1.305,0,0,0-.146.094,3.4,3.4,0,0,1-.679.4,3.221,3.221,0,0,1-1.194.265,3.913,3.913,0,0,1-3.026-1.226,4.111,4.111,0,0,1-.968-1.685,4.7,4.7,0,0,1-.188-1.88,4.582,4.582,0,0,1,.665-2.009,3.941,3.941,0,0,1,1.34-1.327,3.586,3.586,0,0,1,1.776-.522,3.649,3.649,0,0,1,1.758.348,3.134,3.134,0,0,1,.477.282l.171.111c.021,0,.07,0,.07-.031a.639.639,0,0,0,0-.115v-.324a.1.1,0,0,1,.1-.115h1.741a.951.951,0,0,1,.171.021s.035.021.042.038a.224.224,0,0,1,0,.084v.265Zm-2.155,0V15.407a.369.369,0,0,0-.1-.265,2.409,2.409,0,0,0-1.455-.856,2.089,2.089,0,0,0-1.069.066,1.96,1.96,0,0,0-1.138,1,2.475,2.475,0,0,0-.118,2.089,2.033,2.033,0,0,0,2.019,1.351,2.284,2.284,0,0,0,1.769-.891.386.386,0,0,0,.09-.268Z" transform="translate(-126.03 -6.909)"/>
    <path id="Tracciato_3122" data-name="Tracciato 3122" d="M101.4,20.622a.236.236,0,0,1-.056.031.7.7,0,0,1-.118,0h-1.7a.439.439,0,0,1-.115,0,.1.1,0,0,1-.038-.038.244.244,0,0,1,0-.087v-.379c0-.028,0-.066-.042-.066a.122.122,0,0,0-.077.021.936.936,0,0,0-.094.07,3.314,3.314,0,0,1-2.089.665,3.955,3.955,0,0,1-3.332-1.894,4.526,4.526,0,0,1-.658-2.04,4.752,4.752,0,0,1,.31-2.127,4.178,4.178,0,0,1,1.2-1.709,3.579,3.579,0,0,1,1.866-.853,3.638,3.638,0,0,1,2.636.592,1.891,1.891,0,0,0,.2.122s.045,0,.045-.024v-.292c0-.279,0-.275.272-.275h1.671c.08,0,.115.042.115.132v7.865A.971.971,0,0,1,101.4,20.622ZM99.259,16.5V15.452a.5.5,0,0,0-.146-.366,2.4,2.4,0,0,0-1.943-.839,1.856,1.856,0,0,0-1.177.46,2.037,2.037,0,0,0-.567.769,2.507,2.507,0,0,0-.091,1.856,2.033,2.033,0,0,0,1.292,1.34,1.967,1.967,0,0,0,.776.111,2.3,2.3,0,0,0,1.741-.846.5.5,0,0,0,.125-.348C99.252,17.217,99.259,16.855,99.259,16.5Z" transform="translate(-59.839 -6.891)"/>
    <path id="Tracciato_3123" data-name="Tracciato 3123" d="M225.029,12.694c.056.115.1.212.15.31l2.047,4.345a.669.669,0,0,0,.143.251c.063-.028.077-.087.1-.139l.407-.94q.773-1.772,1.539-3.544c.038-.091.084-.178.129-.272a1.438,1.438,0,0,1,.171-.024h1.817a1.974,1.974,0,0,1,.2.017.031.031,0,0,1,.028.042.932.932,0,0,1-.052.167q-.348.762-.675,1.525l-4.617,10.382a1.163,1.163,0,0,1-.15.292h-2.044a.443.443,0,0,1-.118,0,.056.056,0,0,1-.024-.045,1.045,1.045,0,0,1,.042-.139l.4-.881,1.588-3.555c.038-.08.073-.16.108-.24a.2.2,0,0,0,0-.171l-.125-.265L222.8,13c-.038-.08-.07-.16-.1-.24,0-.021.024-.066.045-.07h2.079A1.039,1.039,0,0,1,225.029,12.694Z" transform="translate(-144.341 -7.225)"/>
    <path id="Tracciato_3124" data-name="Tracciato 3124" d="M73.713,17.729l.139.1c.48.383.982.738,1.445,1.142v.024a.132.132,0,0,1,0,.056,4.286,4.286,0,0,1-1.713,1.438,4.122,4.122,0,0,1-1.393.348,6.657,6.657,0,0,1-.79,0,4.178,4.178,0,0,1-3.809-3.057,4.324,4.324,0,0,1-.164-1.535,4.227,4.227,0,0,1,2.145-3.482,4.14,4.14,0,0,1,2.009-.557,4.261,4.261,0,0,1,2.249.54,4.042,4.042,0,0,1,1.184.989.582.582,0,0,1,.063.1.063.063,0,0,1,0,.056.961.961,0,0,1-.1.1L73.765,15.1l-.111.094a.073.073,0,0,1-.1,0l-.136-.153a2.437,2.437,0,0,0-.571-.47,2.145,2.145,0,0,0-3.207,1.278,2.507,2.507,0,0,0,.049,1.508,2.089,2.089,0,0,0,1.887,1.434,2.263,2.263,0,0,0,1.936-.839c.059-.066.111-.136.171-.2C73.685,17.74,73.7,17.74,73.713,17.729Z" transform="translate(-43.122 -6.913)"/>
    <path id="Tracciato_3125" data-name="Tracciato 3125" d="M51.341,13.042c-.348.526-.641,1.044-.992,1.546l-.038.017-.212-.132a2.615,2.615,0,0,0-.923-.366,1.915,1.915,0,0,0-.9.035.929.929,0,0,0-.313.15.745.745,0,0,0-.164.167.453.453,0,0,0,.059.609.978.978,0,0,0,.265.185c.143.063.285.129.432.185.265.1.533.188.8.282a6.56,6.56,0,0,1,.836.348,3.283,3.283,0,0,1,.588.383,2.166,2.166,0,0,1,.808,1.6,2.388,2.388,0,0,1-.1.926,2.35,2.35,0,0,1-.752,1.093,3.238,3.238,0,0,1-1.219.62,4.073,4.073,0,0,1-1.25.139,5.264,5.264,0,0,1-2.58-.762c-.143-.087-.282-.181-.418-.275-.077-.052-.084-.087-.028-.171q.442-.7.895-1.372a.258.258,0,0,1,.059-.063.063.063,0,0,1,.056,0c.049.028.094.063.143.1a3.294,3.294,0,0,0,2.051.668,1.219,1.219,0,0,0,.432-.066,1.469,1.469,0,0,0,.237-.111.815.815,0,0,0,.2-.139.55.55,0,0,0,0-.749.919.919,0,0,0-.272-.219,4.1,4.1,0,0,0-.393-.191c-.254-.1-.512-.191-.766-.289s-.491-.188-.735-.292a3.345,3.345,0,0,1-.519-.272,2.716,2.716,0,0,1-.46-.348,1.9,1.9,0,0,1-.571-1.128,2.315,2.315,0,0,1,.714-2.089,3.064,3.064,0,0,1,1.288-.728,3.381,3.381,0,0,1,.836-.136,5.017,5.017,0,0,1,2.489.55c.111.059.216.129.324.2A1.122,1.122,0,0,1,51.341,13.042Z" transform="translate(-28.643 -6.905)"/>
    <path id="Tracciato_3126" data-name="Tracciato 3126" d="M124.177,7.676V2.025c0-.487-.052-.425.414-.428s.919,0,1.393,0h.261a.091.091,0,0,1,.087.1v11.98a.1.1,0,0,1-.07.08h-1.974a.1.1,0,0,1-.073-.08.733.733,0,0,1,0-.087V7.669Z" transform="translate(-80.119 0)"/>
  </g>
</svg>
