<svg xmlns="http://www.w3.org/2000/svg" width="56" height="36" viewBox="0 0 56 36">
  <g id="Raggruppa_10753" data-name="Raggruppa 10753" transform="translate(18789 17815)">
    <rect id="Rettangolo_3707" data-name="Rettangolo 3707" width="56" height="36" transform="translate(-18789 -17815)" fill="none"/>
    <g id="g4158" transform="translate(-18780 -17802.998)">
      <path id="polygon9" d="M436.511,122.343h-3l1.879-11.616h3Z" transform="translate(-420.443 -110.516)" fill="#00579f"/>
      <path id="path11" d="M574.189,105.542a7.4,7.4,0,0,0-2.694-.495c-2.966,0-5.055,1.582-5.068,3.843-.025,1.668,1.5,2.6,2.632,3.151,1.162.568,1.557.94,1.557,1.446-.012.778-.939,1.137-1.8,1.137a5.978,5.978,0,0,1-2.818-.618l-.4-.186-.42,2.608a9.143,9.143,0,0,0,3.35.618c3.152,0,5.2-1.557,5.228-3.967.012-1.322-.791-2.336-2.521-3.164-1.05-.532-1.694-.89-1.694-1.434.012-.494.544-1,1.73-1a5.1,5.1,0,0,1,2.237.445l.272.123.409-2.508Z" transform="translate(-547.233 -105.048)" fill="#00579f"/>
      <path id="path13" d="M795.169,118.228c.247-.667,1.2-3.25,1.2-3.25-.012.025.247-.68.4-1.112l.21,1s.569,2.781.692,3.361Zm3.708-7.5h-2.323a1.482,1.482,0,0,0-1.57.964l-4.462,10.652h3.152l.63-1.743h3.856c.086.408.358,1.743.358,1.743H801.3l-2.423-11.616Z" transform="translate(-764.221 -110.516)" fill="#00579f"/>
      <path id="path15" d="M173.251,110.727l-2.942,7.921-.321-1.607a8.891,8.891,0,0,0-4.153-4.869l2.694,10.158h3.176l4.721-11.6Z" transform="translate(-162.696 -110.516)" fill="#00579f"/>
      <path id="path17" d="M86.048,110.727H81.215l-.049.235a10.05,10.05,0,0,1,7.292,6.08L87.407,111.7a1.243,1.243,0,0,0-1.359-.976Z" transform="translate(-81.166 -110.516)" fill="#faa61a"/>
    </g>
  </g>
</svg>
