<?xml version="1.0" encoding="utf-8"?>
<!-- Generator: Adobe Illustrator 26.0.3, SVG Export Plug-In . SVG Version: 6.00 Build 0)  -->
<svg version="1.1" id="Livello_1" xmlns="http://www.w3.org/2000/svg" xmlns:xlink="http://www.w3.org/1999/xlink" x="0px" y="0px"
	 viewBox="0 0 86 86" style="enable-background:new 0 0 86 86;" xml:space="preserve">
<style type="text/css">
	.st0{fill:#FFFFFF;fill-opacity:0;}
	.st1{fill:#333333;}
</style>
<g id="Raggruppa_10394" transform="translate(-688 -4769)">
	<rect id="Rettangolo_4" x="688" y="4769" class="st0" width="86" height="86"/>
	<g id="fi-rr-earnings" transform="translate(700.247 4781)">
		<path class="st1" d="M59.4,26.7c0.5,0,0.8-0.4,0.8-0.8V12.9c0-6.1-5-11.2-11.2-11.2H36.2c-0.5,0-0.8,0.4-0.8,0.8s0.4,0.8,0.8,0.8
			h12.9c1.4,0,2.8,0.3,4.1,1l2.2,1.1L2,58.8c-0.3,0.3-0.3,0.9,0,1.2c0.3,0.3,0.9,0.3,1.2,0L56.6,6.6l1.1,2.2c0.6,1.3,0.9,2.7,1,4.1
			v12.9C58.6,26.3,59,26.7,59.4,26.7z"/>
		<path class="st1" d="M15.5,24.1c4.7,0,8.6-3.9,8.6-8.6s-3.9-8.6-8.6-8.6c-4.7,0-8.6,3.9-8.6,8.6c0,2.3,0.9,4.4,2.5,6.1
			C11.1,23.2,13.2,24.1,15.5,24.1L15.5,24.1z M8.6,15.5c0-3.8,3.1-6.9,6.9-6.9s6.9,3.1,6.9,6.9s-3.1,6.9-6.9,6.9S8.6,19.3,8.6,15.5z
			"/>
		<path class="st1" d="M46.5,37.9L46.5,37.9c-2.3,0-4.4,0.9-6.1,2.5s-2.5,3.8-2.5,6.1s0.9,4.4,2.5,6.1c1.6,1.6,3.8,2.5,6.1,2.5
			c0,0,0,0,0,0c4.7,0,8.6-3.9,8.6-8.6C55.1,41.8,51.2,37.9,46.5,37.9z M46.5,53.4c-3.8,0-6.9-3.1-6.9-6.9s3.1-6.9,6.9-6.9
			s6.9,3.1,6.9,6.9S50.3,53.4,46.5,53.4z"/>
	</g>
</g>
</svg>
