<?xml version="1.0" encoding="utf-8"?>
<!-- Generator: Adobe Illustrator 26.0.3, SVG Export Plug-In . SVG Version: 6.00 Build 0)  -->
<svg version="1.1" id="Livello_1" xmlns="http://www.w3.org/2000/svg" xmlns:xlink="http://www.w3.org/1999/xlink" x="0px" y="0px"
	 viewBox="0 0 86 86" style="enable-background:new 0 0 86 86;" xml:space="preserve">
<style type="text/css">
	.st0{fill:#FFFFFF;fill-opacity:0;}
	.st1{fill:#333333;}
</style>
<g id="Raggruppa_10394" transform="translate(-688 -4769)">
	<rect id="Rettangolo_4" x="688" y="4769" class="st0" width="86" height="86"/>
	<g id="Raggruppa_10393" transform="translate(705.167 4781)">
		<path class="st1" d="M9.5,22.9l-1,0.5c-4.1,1.8-6.7,5.8-6.7,10.2v15.5c0,6.1,5,11.2,11.2,11.2h25.8c6.1,0,11.2-5,11.2-11.2V33.6
			c0-4.4-2.6-8.4-6.7-10.2l-1-0.5v-4.8c0-9-7.3-16.3-16.3-16.3S9.5,9.1,9.5,18.1V22.9z M48.2,33.6v15.5c0,5.2-4.3,9.5-9.5,9.5H12.9
			c-5.2,0-9.5-4.3-9.5-9.5V33.6c0-5.2,4.3-9.5,9.5-9.5h25.8C44,24.1,48.2,28.3,48.2,33.6z M11.2,18.1c0-3.9,1.6-7.6,4.4-10.3
			C18.3,5,22.1,3.5,26,3.5c7.9,0.1,14.5,6.6,14.5,14.5v4.3H11.2V18.1z"/>
		<path class="st1" d="M25.8,45.3c0.7,0,1.2-0.5,1.2-1.2l0-6.1c0-0.7-0.5-1.2-1.2-1.2c-0.7,0-1.2,0.5-1.2,1.2V44
			C24.6,44.7,25.1,45.3,25.8,45.3z"/>
	</g>
</g>
</svg>
