<?xml version="1.0" encoding="utf-8"?>
<!-- Generator: Adobe Illustrator 26.0.3, SVG Export Plug-In . SVG Version: 6.00 Build 0)  -->
<svg version="1.1" id="Livello_1" xmlns="http://www.w3.org/2000/svg" xmlns:xlink="http://www.w3.org/1999/xlink" x="0px" y="0px"
	 viewBox="0 0 86 86" style="enable-background:new 0 0 86 86;" xml:space="preserve">
<style type="text/css">
	.st0{fill:#FFFFFF;fill-opacity:0;}
	.st1{fill:#333333;}
</style>
<g id="Raggruppa_10394" transform="translate(-688 -4769)">
	<rect id="Rettangolo_4" x="688" y="4769" class="st0" width="86" height="86"/>
	<g>
		<path class="st1" d="M748.7,4838c1.1-1.6,1.4-3.6,1.1-5.5c-0.7-3.4-3.7-5.8-7.1-5.8c-3,0-5.6,1.8-6.7,4.5l-0.6,1.4l-1.5-0.4
			c-1.8-0.5-3.8-0.5-5.6,0l-1.5,0.4l-0.6-1.4c-0.7-1.8-2.1-3.2-3.9-3.9c-0.9-0.4-1.8-0.6-2.8-0.6c-0.9,0-1.9,0.2-2.8,0.6
			c-1.8,0.7-3.2,2.1-3.9,3.9c-0.7,1.8-0.7,3.8,0,5.6c0.7,1.8,2.1,3.2,3.9,3.9c1.8,0.7,3.8,0.7,5.6,0c2.2-0.9,3.9-2.9,4.4-5.3l0.2-1
			l0.9-0.3c1.1-0.4,2.2-0.6,3.3-0.6l0.1,0l0.1,0c1.1,0,2.2,0.3,3.3,0.6l0.9,0.3l0.2,1c0.8,3.9,4.7,6.5,8.6,5.7
			C746,4840.7,747.6,4839.6,748.7,4838z M719.4,4839.6c-3.1,0-5.6-2.5-5.6-5.6s2.5-5.6,5.6-5.6s5.6,2.5,5.6,5.6
			S722.5,4839.6,719.4,4839.6z M742.6,4839.6C742.6,4839.6,742.6,4839.6,742.6,4839.6c-3.1,0-5.6-2.5-5.6-5.6c0-3.1,2.5-5.6,5.6-5.6
			s5.6,2.5,5.6,5.6c0,1.5-0.6,2.9-1.6,4C745.5,4839,744.1,4839.6,742.6,4839.6z"/>
		<path class="st1" d="M751,4805.1l-1.2-0.4l0-1.2c-0.6-19.3-10.6-20.7-11-20.7c-1.9,0.1-3.8,0.7-5.3,1.8c-1.5,1.1-3.5,1.1-5,0
			c-1.6-1.1-3.4-1.7-5.3-1.8c-0.4,0.1-10.4,1.4-11,20.7l0,1.2l-1.2,0.4c-4.5,1.5-9.2,4.1-9.2,6.9c0,7.5,14.1,8.6,29.2,8.6
			c15.2,0,29.2-1,29.2-8.6C760.2,4809.2,755.5,4806.6,751,4805.1z M713.8,4803.9c0.4-16.4,7.8-19,9.2-19.4l0.3-0.1l0.3,0
			c1.4,0.2,2.8,0.7,3.9,1.5c2.1,1.5,4.9,1.5,6.9,0c1.2-0.8,2.5-1.3,3.9-1.5l0.3,0l0.3,0.1c1.5,0.4,8.8,2.9,9.2,19.4l0,1.2l-1.1,0.5
			c-5.1,2.3-10.7,3.3-16.2,3.1c-0.5,0-1,0-1.5,0c-5,0-10.1-1.1-14.7-3.1l-1.1-0.5L713.8,4803.9z M758.6,4812c0,3.2-3.1,6.9-27.6,6.9
			c-24.4,0-27.6-3.6-27.6-6.7l0-0.7l0.5-0.5c2.3-2.2,5.1-3.8,8.2-4.5l0.6-0.1l0.6,0.3c5.5,2.7,11.5,4,17.6,3.7l0.1,0l0.1,0
			c6.1,0.3,12.2-1,17.6-3.7l0.6-0.3l0.6,0.2c3,0.7,5.8,2.2,8.1,4.2l0.6,0.5V4812z"/>
	</g>
</g>
</svg>
