<svg xmlns="http://www.w3.org/2000/svg" width="42" height="42" viewBox="0 0 42 42">
  <g id="Raggruppa_10895" data-name="Raggruppa 10895" transform="translate(-1441 -5250)">
    <rect id="NoPath_-_Copia_3_" data-name="NoPath - Copia (3)" width="42" height="42" rx="21" transform="translate(1441 5250)" fill="#1da1f2"/>
    <g id="Raggruppa_10247" data-name="Raggruppa 10247" transform="translate(1149 1576)">
      <rect id="Rettangolo_1231" data-name="Rettangolo 1231" width="24" height="24" transform="translate(301 3683)" fill="#fff" opacity="0"/>
      <g id="layer1" transform="translate(20.68 3290.193)">
        <path id="path5" d="M305.32,398.52a9.432,9.432,0,0,1-2.71.743,4.732,4.732,0,0,0,2.075-2.611,9.445,9.445,0,0,1-3,1.145,4.723,4.723,0,0,0-8.041,4.3,13.4,13.4,0,0,1-9.726-4.93,4.724,4.724,0,0,0,1.46,6.3,4.7,4.7,0,0,1-2.137-.59c0,.02,0,.039,0,.059a4.722,4.722,0,0,0,3.785,4.627,4.729,4.729,0,0,1-2.131.081,4.723,4.723,0,0,0,4.408,3.277,9.467,9.467,0,0,1-5.86,2.02,9.592,9.592,0,0,1-1.126-.066,13.42,13.42,0,0,0,20.659-11.306q0-.307-.014-.611a9.587,9.587,0,0,0,2.354-2.443Z" transform="translate(-1 0)" fill="#fff"/>
      </g>
    </g>
  </g>
</svg>
