<svg xmlns="http://www.w3.org/2000/svg" width="42" height="42" viewBox="0 0 42 42">
  <g id="Raggruppa_11306" data-name="Raggruppa 11306" transform="translate(-1498 -5250)">
    <rect id="NoPath_-_Copia_3_" data-name="NoPath - Copia (3)" width="42" height="42" rx="21" transform="translate(1498 5250)"/>
    <g id="tiktok-icon-white-1-logo-svgrepo-com" transform="translate(1386.334 5188.51)">
      <g id="Raggruppa_11307" data-name="Raggruppa 11307" transform="translate(122.872 71.456)">
        <path id="Tracciato_3156" data-name="Tracciato 3156" d="M196,110.182l.079.222C196.069,110.379,196.04,110.3,196,110.182Zm3.116-5.037a3.349,3.349,0,0,1,4.34-2.952V99.078a6.522,6.522,0,0,1,1.149.071v4.009a3.35,3.35,0,0,0-4.339,2.952,3.7,3.7,0,0,0,.65,2.229q-.2-.107-.406-.243A3.412,3.412,0,0,1,199.116,105.145Zm12.018-11.828a5.5,5.5,0,0,1-1.319-2.707h1.1a5.112,5.112,0,0,0,1.373,3.672l.022.024A6.373,6.373,0,0,1,211.134,93.317Zm5.277,2.823v3.929a13.617,13.617,0,0,1-2.432-.332,9.291,9.291,0,0,1-2.373-.973s-.641-.42-.693-.449v8.113a8.165,8.165,0,0,1-.48,2.521,7.637,7.637,0,0,1-1.334,2.2,7.546,7.546,0,0,1-2.448,1.828,7.258,7.258,0,0,1-3.015.663,7.442,7.442,0,0,1-4.061-1.216,8.144,8.144,0,0,1-1.16-.973l.01.007a7.443,7.443,0,0,0,4.061,1.216,7.256,7.256,0,0,0,3.015-.663,7.354,7.354,0,0,0,3.782-4.032,8.192,8.192,0,0,0,.48-2.521V97.349c.052.03.693.45.693.45a9.28,9.28,0,0,0,2.373.973,13.623,13.623,0,0,0,2.432.332V96.025A3.719,3.719,0,0,0,216.411,96.14Z" transform="translate(-196 -90.61)" fill="#ee1d52"/>
      </g>
      <path id="Tracciato_3157" data-name="Tracciato 3157" d="M221.7,96.025V99.1a13.624,13.624,0,0,1-2.432-.332A9.3,9.3,0,0,1,216.9,97.8s-.641-.42-.693-.45v8.114a8.163,8.163,0,0,1-.48,2.521,7.636,7.636,0,0,1-1.334,2.2,7.553,7.553,0,0,1-2.448,1.828,7.256,7.256,0,0,1-3.015.663,7.443,7.443,0,0,1-4.061-1.216l-.01-.007a7.558,7.558,0,0,1-.573-.649,7.8,7.8,0,0,1-1.085-1.968.01.01,0,0,1,0,0,7.937,7.937,0,0,1-.428-2.623,7.213,7.213,0,0,1,.879-3.322,7.817,7.817,0,0,1,1.706-2.084,7.122,7.122,0,0,1,2.027-1.2,6.8,6.8,0,0,1,2.515-.528v3.116a3.34,3.34,0,0,0-2.947,5.9q.207.137.406.243a3.161,3.161,0,0,0,.744.722,3.25,3.25,0,0,0,3.36.321,3.163,3.163,0,0,0,1.734-1.9,4.625,4.625,0,0,0,.179-1.574V90.61h2.88a5.5,5.5,0,0,0,1.319,2.707,6.373,6.373,0,0,0,1.172.99,6.147,6.147,0,0,0,1.607,1.228A6.27,6.27,0,0,0,221.7,96.025Z" transform="translate(-79.569 -19.154)" fill="#fff"/>
      <path id="Tracciato_3158" data-name="Tracciato 3158" d="M187.89,450.39v0l.071.2C187.953,450.571,187.926,450.5,187.89,450.39Z" transform="translate(-65.408 -361.663)" fill="#69c9d0"/>
      <path id="Tracciato_3159" data-name="Tracciato 3159" d="M184.634,248.474a7.122,7.122,0,0,0-2.027,1.2,7.817,7.817,0,0,0-1.705,2.088,7.209,7.209,0,0,0-.878,3.322,7.937,7.937,0,0,0,.428,2.623.011.011,0,0,0,0,0,7.933,7.933,0,0,0,1.085,1.968,7.563,7.563,0,0,0,.573.649,8,8,0,0,1-1.722-1.615,7.821,7.821,0,0,1-1.082-1.958.045.045,0,0,1,0-.006v0a7.9,7.9,0,0,1-.429-2.624,7.214,7.214,0,0,1,.878-3.322,7.81,7.81,0,0,1,1.705-2.088,7.11,7.11,0,0,1,2.027-1.2,6.943,6.943,0,0,1,1.43-.42,7.1,7.1,0,0,1,2.236-.033v.888A6.8,6.8,0,0,0,184.634,248.474Z" transform="translate(-56.823 -168.023)" fill="#69c9d0"/>
      <path id="Tracciato_3160" data-name="Tracciato 3160" d="M307.28,71.456H304.4V86.751a4.69,4.69,0,0,1-.179,1.574,3.173,3.173,0,0,1-1.734,1.9,3.245,3.245,0,0,1-3.36-.321,3.16,3.16,0,0,1-.746-.72,3.324,3.324,0,0,0,4.689-1.827,4.612,4.612,0,0,0,.179-1.574V70.49h3.977A3.75,3.75,0,0,0,307.28,71.456Zm5.447,4.564v.851a6.27,6.27,0,0,1-1.349-.49,6.146,6.146,0,0,1-1.607-1.228,4.5,4.5,0,0,0,.457.263A5.167,5.167,0,0,0,312.726,76.02Z" transform="translate(-170.593 0)" fill="#69c9d0"/>
    </g>
  </g>
</svg>
