<svg xmlns="http://www.w3.org/2000/svg" width="55.949" height="14.911" viewBox="0 0 55.949 14.911">
  <g id="Raggruppa_11284" data-name="Raggruppa 11284" transform="translate(-180.051 -20.02)">
    <path id="Tracciato_3116" data-name="Tracciato 3116" d="M317.1,385.13c1.826,0,3.511.991,3.281,3.459-.279,2.934-1.851,4.558-4.331,4.565h-2.167c-.312,0-.463.254-.544.775l-.419,2.664c-.063.4-.27.6-.574.6h-2.016c-.321,0-.433-.205-.362-.665l1.664-10.679c.082-.525.279-.721.638-.721h4.826Zm-3.283,5.717h1.642c1.027-.039,1.709-.75,1.777-2.033a1.24,1.24,0,0,0-1.344-1.355l-1.545.007-.53,3.381Zm12.045,5.53c.184-.168.372-.254.345-.047l-.066.495c-.034.258.068.4.309.4h1.791c.3,0,.448-.121.522-.588l1.1-6.927c.056-.348-.029-.518-.293-.518H327.6c-.177,0-.264.1-.31.37l-.073.426c-.038.222-.14.261-.235.038-.334-.791-1.186-1.146-2.375-1.118a4.93,4.93,0,0,0-4.824,4.843,3.329,3.329,0,0,0,3.3,3.712,3.543,3.543,0,0,0,2.78-1.076h0Zm-1.5-1.066a1.8,1.8,0,0,1-1.846-2.111,2.571,2.571,0,0,1,2.473-2.111,1.8,1.8,0,0,1,1.846,2.111,2.57,2.57,0,0,1-2.473,2.111Zm9.012-6.148h-1.816c-.374,0-.527.279-.408.623l2.255,6.6-2.212,3.142c-.186.263-.042.5.219.5h2.041a.624.624,0,0,0,.606-.3l6.936-9.948c.214-.306.113-.627-.238-.627H338.82c-.331,0-.464.131-.654.407l-2.892,4.191-1.292-4.2a.553.553,0,0,0-.612-.394Z" transform="translate(-129.892 -365.106)" fill="#fff" fill-rule="evenodd"/>
    <path id="Tracciato_3117" data-name="Tracciato 3117" d="M539.764,385.113c1.826,0,3.511.991,3.28,3.459-.279,2.934-1.851,4.558-4.331,4.565h-2.166c-.312,0-.462.254-.543.775l-.419,2.664c-.063.4-.27.6-.574.6h-2.016c-.321,0-.433-.205-.362-.665l1.667-10.681c.082-.525.279-.721.638-.721h4.826Zm-3.283,5.717h1.642c1.027-.039,1.709-.75,1.777-2.033a1.24,1.24,0,0,0-1.344-1.355l-1.545.007-.53,3.381Zm12.045,5.53c.184-.168.372-.254.345-.048l-.066.495c-.034.258.069.4.309.4h1.791c.3,0,.448-.121.522-.588l1.1-6.927c.056-.348-.029-.518-.293-.518h-1.967c-.178,0-.264.1-.31.37l-.073.426c-.038.222-.139.261-.235.038-.334-.791-1.186-1.146-2.375-1.118a4.93,4.93,0,0,0-4.824,4.843,3.329,3.329,0,0,0,3.3,3.712,3.542,3.542,0,0,0,2.78-1.076h0Zm-1.5-1.066a1.8,1.8,0,0,1-1.845-2.111,2.571,2.571,0,0,1,2.473-2.111,1.8,1.8,0,0,1,1.846,2.111,2.571,2.571,0,0,1-2.473,2.111Zm8.262,1.92H553.22a.245.245,0,0,1-.253-.279l1.816-11.507a.356.356,0,0,1,.344-.279H557.2a.244.244,0,0,1,.253.279l-1.816,11.507a.356.356,0,0,1-.344.282Z" transform="translate(-321.45 -365.09)" fill="#fff" fill-rule="evenodd"/>
  </g>
</svg>
