<?xml version="1.0" encoding="utf-8"?>
<!-- Generator: Adobe Illustrator 26.0.3, SVG Export Plug-In . SVG Version: 6.00 Build 0)  -->
<svg version="1.1" id="Livello_1" xmlns="http://www.w3.org/2000/svg" xmlns:xlink="http://www.w3.org/1999/xlink" x="0px" y="0px"
	 viewBox="0 0 86 86" style="enable-background:new 0 0 86 86;" xml:space="preserve">
<style type="text/css">
	.st0{fill:#FFFFFF;fill-opacity:0;}
	.st1{fill:#333333;}
</style>
<g id="Raggruppa_10394" transform="translate(-688 -4769)">
	<rect id="Rettangolo_4" x="688" y="4769" class="st0" width="86" height="86"/>
	<g>
		<path class="st1" d="M723.1,4817.4l5.2,2.6c0.8,0.4,1.8,0.6,2.7,0.6c0,0,0,0,0,0h0c0,0,0,0,0,0c0.9,0,1.8-0.2,2.7-0.6l5.2-2.6
			c2.1-1,3.3-3.1,3.3-5.4v-7.7c0-2.3-1.3-4.3-3.3-5.4l-5.2-2.6c-1.7-0.8-3.7-0.8-5.4,0l-5.2,2.6c-2,1-3.3,3.1-3.3,5.4v7.7
			C719.7,4814.3,721,4816.3,723.1,4817.4z M721.4,4804.3c0-0.5,0.1-0.9,0.2-1.3l0.6-1.9l7.4,3.7c0.8,0.4,1.7,0.4,2.4,0l7.4-3.7
			l0.6,1.9c0.1,0.4,0.2,0.9,0.2,1.3v7.7c0,1.6-0.9,3.2-2.4,3.9l-5.2,2.6c-0.6,0.3-1.3,0.5-1.9,0.5c-0.7,0-1.3-0.1-1.9-0.4l-5.2-2.6
			c-1.5-0.7-2.4-2.3-2.4-3.9V4804.3z"/>
		<path class="st1" d="M712.8,4841.2H749c0.5,0,0.8-0.4,0.8-0.8c0-0.5-0.4-0.8-0.8-0.8h-11.5l12.3-11.4c5-5,7.8-11.7,7.8-18.8
			s-2.8-13.8-7.8-18.9s-11.7-7.8-18.9-7.8c0,0,0,0,0,0c-7.1,0-13.8,2.8-18.9,7.8c-5,5-7.8,11.7-7.8,18.9c0,7.1,2.8,13.8,7.8,18.9
			l0.1,0.1l12.2,11.2h-11.5c-0.5,0-0.8,0.4-0.8,0.8C712,4840.9,712.4,4841.2,712.8,4841.2z M723.4,4836.5l-10.1-9.4
			c-9.8-9.8-9.8-25.7-0.1-35.4l0,0c4.7-4.7,11-7.3,17.6-7.3c0,0,0,0,0.1,0c6.7,0,13,2.6,17.7,7.4c9.6,9.7,9.7,25.5,0.1,35.2
			l-10.4,9.6c-2.1,2-4.7,2.9-7.4,2.9C728.2,4839.5,725.5,4838.5,723.4,4836.5z"/>
	</g>
</g>
</svg>
