<?xml version="1.0" encoding="utf-8"?>
<!-- Generator: Adobe Illustrator 26.0.3, SVG Export Plug-In . SVG Version: 6.00 Build 0)  -->
<svg version="1.1" id="Livello_1" xmlns="http://www.w3.org/2000/svg" xmlns:xlink="http://www.w3.org/1999/xlink" x="0px" y="0px"
	 viewBox="0 0 86 86" style="enable-background:new 0 0 86 86;" xml:space="preserve">
<style type="text/css">
	.st0{fill:#FFFFFF;fill-opacity:0;}
	.st1{fill:#333333;}
</style>
<g id="Raggruppa_10394" transform="translate(-688 -4769)">
	<rect id="Rettangolo_4" x="688" y="4769" class="st0" width="86" height="86"/>
	<path class="st1" d="M701.8,4830.1c0,6.1,5,11.2,11.2,11.2h36.2c6.1,0,11.2-5,11.2-11.2v-25.8c0-3.3-2.7-6-6-6h-9.5v-1.8
		c0-7.6-6.2-13.8-13.8-13.8c-7.6,0-13.8,6.2-13.8,13.8v1.8h-9.5c-3.3,0-6,2.7-6,6V4830.1z M718.9,4796.5c0-6.7,5.4-12.1,12.1-12.1
		c6.7,0,12.1,5.4,12.1,12.1v1.8h-24.2V4796.5z M703.4,4804.2c0-2.4,1.9-4.3,4.3-4.3h9.5v6.9c0,0.5,0.4,0.8,0.8,0.8s0.8-0.4,0.8-0.8
		v-6.9h24.2v6.9c0,0.5,0.4,0.8,0.8,0.8c0.5,0,0.8-0.4,0.8-0.8v-6.9h9.5c2.4,0,4.3,1.9,4.3,4.3v25.8c0,5.2-4.3,9.5-9.5,9.5h-36.2
		c-5.2,0-9.5-4.3-9.5-9.5V4804.2z"/>
</g>
</svg>
