<?xml version="1.0" encoding="utf-8"?>
<!-- Generator: Adobe Illustrator 26.0.3, SVG Export Plug-In . SVG Version: 6.00 Build 0)  -->
<svg version="1.1" id="Livello_1" xmlns="http://www.w3.org/2000/svg" xmlns:xlink="http://www.w3.org/1999/xlink" x="0px" y="0px"
	 viewBox="0 0 86 86" style="enable-background:new 0 0 86 86;" xml:space="preserve">
<style type="text/css">
	.st0{fill:#FFFFFF;fill-opacity:0;}
	.st1{clip-path:url(#SVGID_00000123425119304457311560000008453425364678120070_);fill:#333333;}
</style>
<g id="Raggruppa_10394" transform="translate(-688 -4769)">
	<rect id="Rettangolo_4" x="688" y="4769" class="st0" width="86" height="86"/>
	<g id="Raggruppa_10862" transform="translate(701 4786)">
		<g>
			<defs>
				<rect id="SVGID_1_" width="62" height="55"/>
			</defs>
			<clipPath id="SVGID_00000051354873119297065030000011967879342130842274_">
				<use xlink:href="#SVGID_1_"  style="overflow:visible;"/>
			</clipPath>
			<path style="clip-path:url(#SVGID_00000051354873119297065030000011967879342130842274_);fill:#333333;" d="M60.8,39.2V27.6
				c-0.2-0.4-0.7-0.7-1.2-0.6l-0.1,0c-0.6,0-1.1,0-1.7,0c-0.2,0-0.5,0-0.8,0h-1.2V14.7c0-1-0.2-1.2-1.2-1.2l-4.6,0l-1-0.5l-0.1-0.8
				V2.5c0-1-0.2-1.3-1.3-1.3H8.5C5.1,1.1,2.1,3.4,1.4,6.7C1.3,7.4,1.2,8.2,1.3,8.9c0,13,0,26,0,39c0,0.1,0,0.2,0,0.3
				c0.1,3.1,2.6,5.5,5.6,5.5c0,0,0.1,0,0.1,0c16,0,31.9,0,47.8,0h0.1l0.1,0c0.1,0,0.1,0,0.2,0c0.5-0.1,0.8-0.5,0.7-0.9l0-0.2
				c0-2.4,0-4.8,0-7.2l0-5.7h1.2c0.2,0,0.5,0,0.7,0c0.5,0,1.1,0,1.6,0l0.1,0C60,39.9,60.5,39.6,60.8,39.2z M7.5,2.9
				c0.3,0,0.6,0,0.9,0h38.7v4.6H8.8c-0.3,0-0.5,0-0.8,0C7.7,7.5,7.4,7.9,7.4,8.3C7.5,8.6,7.8,9,8.1,9c0.2,0,0.4,0,0.6,0l38.5,0
				l0,4.3l-1.3,0.1c-0.2,0-0.3,0-0.5,0c-12.3,0-24.7,0-37,0c-0.1,0-0.3,0-0.4,0c-2.6,0-4.9-2-5.2-4.7C2.5,5.9,4.6,3.2,7.5,2.9z
				 M54.2,52.1h-47c-2.8,0-4.5-1.6-4.5-4.4V14.1l1.2,0c0.2,0,0.4,0,0.6,0.1l0.2,0.1c1.2,0.6,2.6,0.9,4,0.8c14.4,0,28.8,0,43.2,0h2.1
				l0,11.9h-1.9c-2.5,0-5,0-7.4,0l-0.1,0l-0.1,0c-0.1,0-0.1,0-0.2,0c-0.4,0.1-0.8,0.5-0.7,0.9l0,0.2c0,1.1,0,2.2,0,3.2
				c0,2.3,0,4.7,0,7.1l0,0.1c0,0.1,0,0.2,0,0.3c0.1,0.6,0.6,1,1.2,0.9l0.1,0c1.7,0,3.5,0,5.1,0c0.7,0,1.4,0,2.2,0h1.9V52.1z
				 M59.1,38.1H45.4l0-9.5h13.8V38.1z"/>
		</g>
	</g>
</g>
</svg>
