<svg xmlns="http://www.w3.org/2000/svg" width="24" height="24" viewBox="0 0 24 24">
  <g id="Raggruppa_10411" data-name="Raggruppa 10411" transform="translate(-334 -5229)">
    <rect id="Rettangolo_1263" data-name="Rettangolo 1263" width="24" height="24" transform="translate(334 5229)" fill="#fff" opacity="0"/>
    <path id="Tracciato_3127" data-name="Tracciato 3127" d="M9.033,0h1c.075.013.149.023.223.037.518.1,1.048.166,1.553.317A7.227,7.227,0,0,1,15.26,2.71a6.638,6.638,0,0,1,1.652,4.106c.045,1.132.021,1.092.03,2.226,0,.087,0,.173,0,.277.162,0,.8,0,.925,0a1.563,1.563,0,0,1,1.695,1.669c0,3.079.01,7.334,0,10.415a1.866,1.866,0,0,1-.157.782,1.567,1.567,0,0,1-1.549.9c-5.035,0-11.011,0-16.046,0-.219,0-.439,0-.659,0A1.565,1.565,0,0,1,.2,22.758a1.64,1.64,0,0,1-.629-1.4c.006-3.049,0-7.274,0-10.324,0-.09.006-.18.012-.27A1.541,1.541,0,0,1,1.059,9.326c.2-.01.838,0,1.055,0V9.043c0-.924,0-.673.007-1.6a7.706,7.706,0,0,1,.347-2.351A7.185,7.185,0,0,1,4.25,2.226a7.054,7.054,0,0,1,3.467-2C8.15.127,8.594.074,9.033,0m4.707,9.307a.379.379,0,0,0,.019-.078c0-1.126.034-1.08-.016-2.2a3.812,3.812,0,0,0-.334-1.365A4.181,4.181,0,0,0,8.9,3.2a4.127,4.127,0,0,0-3.534,3.52A24.9,24.9,0,0,0,5.3,9.255c0,.014.01.027.023.052Z" transform="translate(336.432 5229)" fill="#ffa21c"/>
  </g>
</svg>
