<svg xmlns="http://www.w3.org/2000/svg" viewBox="0 0 466.09 163.3"><defs><style>.cls-1{fill:#474747;}</style></defs><g id="Livello_2" data-name="Livello 2"><g id="Layer_1" data-name="Layer 1"><path class="cls-1" d="M0,127.13s403.58-7.42,466-2.5c8-13.6-386-6.33-466,2.5"/><path class="cls-1" d="M84.14,9.22c30.3,0,32,18.12,32,19.37a7.34,7.34,0,0,1-7.5,7.65c-5.31,0-7.81-2.81-9.21-10.31-.94-5-2.5-12.81-15.16-12.81-8.59,0-17.18,3.28-21.86,8.44-8.75,9.53-13.91,25.93-13.91,43.73,0,19.84,10.62,31.87,28.12,31.87,6.72,0,23.43-2.5,33.12-16.71,2.5-3.44,3.43-4.85,4.68-4.85.63,0,1.25.94,1.25,2,0,4.22-14.68,25.78-43.58,25.78-24.21,0-38.9-15-38.9-39.52C33.21,40,49.77,9.22,84.14,9.22"/><path class="cls-1" d="M173.8,81.07a69.54,69.54,0,0,0-1.72,10.31c0,3.12,1.25,4.84,3.29,4.84,3.59,0,7.81-4.68,10.15-11.4.62-1.56.94-2.81,2-2.81a1.06,1.06,0,0,1,1.09,1.09c0,2.66-8,20.31-18.59,20.31-5.93,0-9.06-4.06-10-13-6.41,9.53-10,13-18.59,13-11.25,0-18.75-8.28-18.75-20.93,0-19.84,17.34-39.21,33.28-39.21,5.31,0,8.59,2.19,12,8.12.79-5.93.79-6.56,3.28-6.71,1.57,0,9.38-1.41,11.25-1.41.63,0,1.09.31,1.09.94,0,1.09-4.06,14-4.68,16.71ZM157.4,47c-13.12,0-22.18,30.46-22.18,39.21,0,8.12,3.13,12.34,9.06,12.34,18.12,0,22.49-40.46,22.49-41.24,0-5.63-3.9-10.31-9.06-10.31Z"/><path class="cls-1" d="M241.6,57.33c-.47,0-2.19-.31-3.75-.47a23.94,23.94,0,0,0-3.75-.47c-7.18,0-11.25,6.4-14.53,22.18L215.2,99.66c-.31,1.87-.94,2.34-2.65,2.34h-8.28c-1.72,0-2.19-.31-2.19-1.25a8.51,8.51,0,0,1,.31-1.72l7.5-28.27a67.09,67.09,0,0,0,2.19-15.15c0-3.44-1.41-5.47-3.91-5.47-3.9,0-9.06,7.81-10.46,12.81-.32,1.41-.47,2-1.41,2a1.12,1.12,0,0,1-1.25-1.09c0-3.28,6.87-20.62,17.65-20.62,5.78,0,9.22,5.47,9.22,14.21a49.69,49.69,0,0,1-.47,5.94c6.4-13.43,12.81-20.15,20.31-20.15,3.74,0,6.4,3.12,6.4,7.5,0,4.06-2.34,6.56-6.56,6.56"/><path class="cls-1" d="M270.34,88.1a20.13,20.13,0,0,0-.78,4.53c0,2.66,1.1,4.06,3.28,4.06,3.44,0,6.56-3.12,9.53-9.53,1.25-2.65,2-3.75,2.66-3.75.47,0,.93.63.93,1.25,0,1.72-6.09,18.59-19.37,18.59-5.78,0-9.06-3.75-9.06-10.15a27.62,27.62,0,0,1,.78-6.09l7.82-29.37a19.7,19.7,0,0,0,.78-4.53c0-2.5-1.41-4.53-3.28-4.53-2.82,0-6.1,3.91-8.59,10.15-.94,2.19-1.41,3.44-2.51,3.44-.62,0-.93-.47-.93-1.09,0-2.81,5.62-17.81,15.78-17.81,5.62,0,10.3,5.78,10.3,12.81a44.65,44.65,0,0,1-2,12.34Zm2.19-60.61c0-4.22,3.44-8,7.34-8a6.51,6.51,0,0,1,6.41,6.71c0,4.06-3.6,7.81-7.35,7.81a6.19,6.19,0,0,1-6.4-6.56"/><path class="cls-1" d="M314.12,19.06c3.9-14.22,3.12-15-3.44-15H309c-1.72,0-2.34-.62-2.34-1.72S308,.47,310.84.47l9.52-.31c2.19,0,6.25-.16,7.34-.16,1.73,0,3.44,0,3.44,1.56,0,1.88-1.4,5.63-2.18,8.44L308.65,83.57a26.09,26.09,0,0,0-.94,6.09c0,4.53,2.19,6.09,3.75,6.09,3.59,0,8.44-4.53,12.5-11.55,1.09-1.88,1.56-2.66,2.65-2.66.78,0,1.09.31,1.09.78,0,2.34-9.37,20.62-22.8,20.62-6.56,0-9.53-3.12-9.53-10.15,0-2.82,1.09-8.75,2.66-14.37Z"/><path class="cls-1" d="M357.74,19.06c3.9-14.22,3.12-15-3.44-15h-1.72c-1.72,0-2.34-.62-2.34-1.72s1.4-1.87,4.21-1.87L364,.16c2.19,0,6.25-.16,7.35-.16,1.71,0,3.43,0,3.43,1.56,0,1.88-1.4,5.63-2.18,8.44L352.27,83.57a26.09,26.09,0,0,0-.94,6.09c0,4.53,2.19,6.09,3.75,6.09,3.59,0,8.43-4.53,12.5-11.55,1.09-1.88,1.56-2.66,2.65-2.66.78,0,1.1.31,1.1.78,0,2.34-9.38,20.62-22.81,20.62-6.56,0-9.53-3.12-9.53-10.15,0-2.82,1.09-8.75,2.65-14.37Z"/><path class="cls-1" d="M434.75,64.05c0,20.46-17.5,39.36-36.71,39.36-11.25,0-18.59-7.81-18.59-19.84,0-18.59,17-40.46,36.08-40.46,12.5,0,19.22,8.59,19.22,20.94M392.57,85.6c0,8.44,3.91,13.9,10.15,13.9,15.16,0,19.06-33.42,19.06-40.3,0-7.65-3.12-12.81-8.43-12.81-17.5,0-20.78,34.06-20.78,39.21"/><path class="cls-1" d="M13.92,141.24H24.06a9,9,0,0,1,5.09,1.23,4.63,4.63,0,0,1,1.79,4.11A4.69,4.69,0,0,1,28,151.07a5.24,5.24,0,0,1,2.94,2,6.5,6.5,0,0,1,.39,6.25,5.42,5.42,0,0,1-1.69,2,7.57,7.57,0,0,1-2.43,1.15,10.68,10.68,0,0,1-2.86.37H13.92ZM18.66,150h4.8a3.22,3.22,0,0,0,2.11-.64,2.31,2.31,0,0,0,.79-1.93,2.09,2.09,0,0,0-.89-1.95,4.68,4.68,0,0,0-2.37-.52H18.66Zm0,9.14h5.07a4.38,4.38,0,0,0,2.55-.65,2.46,2.46,0,0,0,.95-2.19,2.84,2.84,0,0,0-.9-2.33,3.83,3.83,0,0,0-2.51-.74H18.66Z"/><path class="cls-1" d="M37.43,141.24h4.74v21.54H37.43Z"/><path class="cls-1" d="M54.48,141.24h4.86l8.06,21.54H62.48L60.85,158H52.79l-1.69,4.8H46.31ZM54,154.45h5.59l-2.72-7.9h-.06Z"/><path class="cls-1" d="M71.54,141.24h4.7l9,14.45h.06V141.24h4.43v21.54H85l-9-14.42H76v14.42H71.54Z"/><path class="cls-1" d="M110.53,148.48a4,4,0,0,0-1.57-2.69,4.91,4.91,0,0,0-3.14-1.08,5.6,5.6,0,0,0-2.67.6,5.14,5.14,0,0,0-1.83,1.63,7.35,7.35,0,0,0-1,2.35,11.63,11.63,0,0,0-.33,2.81,10.8,10.8,0,0,0,.33,2.7,7.14,7.14,0,0,0,1,2.31,5.16,5.16,0,0,0,1.82,1.62,5.67,5.67,0,0,0,2.66.58,4.43,4.43,0,0,0,3.37-1.31,6,6,0,0,0,1.52-3.52h4.59a11,11,0,0,1-.94,3.63,8.82,8.82,0,0,1-2,2.79,8.64,8.64,0,0,1-2.91,1.78,10.3,10.3,0,0,1-3.62.62,11,11,0,0,1-4.42-.86,9.67,9.67,0,0,1-3.35-2.39,10.37,10.37,0,0,1-2.1-3.57,13.15,13.15,0,0,1-.72-4.38,13.6,13.6,0,0,1,.72-4.47,10.55,10.55,0,0,1,2.1-3.63,9.37,9.37,0,0,1,3.35-2.42,11,11,0,0,1,4.42-.86,10.77,10.77,0,0,1,3.38.52,8.83,8.83,0,0,1,2.85,1.5,8,8,0,0,1,2,2.45,8.64,8.64,0,0,1,1,3.29Z"/><path class="cls-1" d="M120.79,141.24h4.74v8.26h8.72v-8.26H139v21.54h-4.74v-9.29h-8.72v9.29h-4.74Z"/><path class="cls-1" d="M145.42,141.24h16.11v4H150.16v4.62H160.6v3.68H150.16v5.28h11.62v4H145.42Z"/><path class="cls-1" d="M167.24,141.24h11.62a7.19,7.19,0,0,1,2.59.45,5.63,5.63,0,0,1,2,1.28,5.92,5.92,0,0,1,1.27,1.9,6.08,6.08,0,0,1,.43,2.31,6.3,6.3,0,0,1-.83,3.34,5,5,0,0,1-2.58,2.06v.06a3.48,3.48,0,0,1,2.31,1.77,7.91,7.91,0,0,1,.83,3.27c0,.08,0,.33,0,.73.06,1,.15,1.9.26,2.62a4.19,4.19,0,0,0,.62,1.75h-4.74a4.94,4.94,0,0,1-.38-1.39c-.07-.52-.13-1.19-.19-2s-.12-1.34-.18-1.75a4.15,4.15,0,0,0-1.05-2.5,3.58,3.58,0,0,0-2.55-.76H172v8.42h-4.74ZM172,151h5.19a3.49,3.49,0,0,0,2.44-.74,3,3,0,0,0,.82-2.34,2.89,2.89,0,0,0-.82-2.26,3.59,3.59,0,0,0-2.44-.72H172Z"/><path class="cls-1" d="M191.29,141.24H196v21.54h-4.74Z"/><path class="cls-1" d="M208.34,141.24h4.86l8.06,21.54h-4.92l-1.63-4.8h-8.06l-1.69,4.8h-4.8Zm-.45,13.21h5.58l-2.71-7.9h-.06Z"/><path class="cls-1" d="M236.05,141.24h9.72a9.32,9.32,0,0,1,3.36.55,6.13,6.13,0,0,1,2.34,1.54,6.32,6.32,0,0,1,1.33,2.22,8.23,8.23,0,0,1,0,5.19,6.05,6.05,0,0,1-3.67,3.76,9.31,9.31,0,0,1-3.36.56h-5v7.72h-4.74Zm4.74,10.14h3.68a8.92,8.92,0,0,0,1.63-.14,4,4,0,0,0,1.31-.48,2.36,2.36,0,0,0,.91-1,4.41,4.41,0,0,0,0-3.25,2.38,2.38,0,0,0-.91-1,3.61,3.61,0,0,0-1.31-.48,10,10,0,0,0-1.63-.12h-3.68Z"/><path class="cls-1" d="M258.44,141.24h16.12v4H263.18v4.62h10.44v3.68H263.18v5.28H274.8v4H258.44Z"/><path class="cls-1" d="M280.26,141.24h11.62a7.24,7.24,0,0,1,2.6.45,5.68,5.68,0,0,1,2,1.28,5.61,5.61,0,0,1,1.27,1.9,6.09,6.09,0,0,1,.44,2.31,6.39,6.39,0,0,1-.83,3.34,5.13,5.13,0,0,1-2.58,2.06v.06a3.53,3.53,0,0,1,2.31,1.77,8.06,8.06,0,0,1,.83,3.27c0,.08,0,.33,0,.73.06,1,.14,1.9.25,2.62a4.19,4.19,0,0,0,.62,1.75h-4.74a5,5,0,0,1-.37-1.39c-.07-.52-.14-1.19-.2-2s-.12-1.34-.18-1.75a4.15,4.15,0,0,0-1-2.5,3.6,3.6,0,0,0-2.55-.76H285v8.42h-4.74ZM285,151h5.19a3.52,3.52,0,0,0,2.45-.74,3,3,0,0,0,.81-2.34,2.89,2.89,0,0,0-.81-2.26,3.62,3.62,0,0,0-2.45-.72H285Z"/><path class="cls-1" d="M315,141.24h4.74V158.8h10.5v4H315Z"/><path class="cls-1" d="M341,141.24h4.86l8.06,21.54H349l-1.63-4.8h-8.06l-1.69,4.8h-4.8Zm-.45,13.21h5.58l-2.71-7.9h-.06Z"/><path class="cls-1" d="M383.08,148.48a4,4,0,0,0-1.56-2.69,4.93,4.93,0,0,0-3.14-1.08,5.6,5.6,0,0,0-2.67.6,5,5,0,0,0-1.83,1.63,7.36,7.36,0,0,0-1,2.35,11.63,11.63,0,0,0-.33,2.81,10.8,10.8,0,0,0,.33,2.7,7,7,0,0,0,1,2.31,5.16,5.16,0,0,0,1.82,1.62,5.67,5.67,0,0,0,2.66.58,4.39,4.39,0,0,0,3.36-1.31,6,6,0,0,0,1.53-3.52h4.58a11,11,0,0,1-.93,3.63,9,9,0,0,1-2,2.79,8.74,8.74,0,0,1-2.91,1.78,10.38,10.38,0,0,1-3.62.62,11.08,11.08,0,0,1-4.43-.86,9.76,9.76,0,0,1-3.35-2.39,10.51,10.51,0,0,1-2.09-3.57,12.91,12.91,0,0,1-.73-4.38,13.35,13.35,0,0,1,.73-4.47A10.69,10.69,0,0,1,370.6,144a9.46,9.46,0,0,1,3.35-2.42,11.08,11.08,0,0,1,4.43-.86,10.82,10.82,0,0,1,3.38.52,9,9,0,0,1,2.85,1.5,8.13,8.13,0,0,1,2.05,2.45,8.81,8.81,0,0,1,1,3.29Z"/><path class="cls-1" d="M399.23,141.24h4.86l8.06,21.54h-4.92L405.6,158h-8.06l-1.69,4.8h-4.8Zm-.45,13.21h5.58l-2.72-7.9h-.06Z"/><path class="cls-1" d="M419.51,155.63a3.45,3.45,0,0,0,1.35,3,5.59,5.59,0,0,0,3.42,1,8.36,8.36,0,0,0,1.4-.12,5.24,5.24,0,0,0,1.36-.42,2.61,2.61,0,0,0,1-.83,2.15,2.15,0,0,0,.4-1.31,1.92,1.92,0,0,0-.4-1.22,3.09,3.09,0,0,0-1.05-.85,9,9,0,0,0-1.45-.59c-.52-.16-1.23-.34-2.11-.54l-1.39-.36c-.95-.27-1.78-.54-2.51-.82a8.05,8.05,0,0,1-2-1.1,4.78,4.78,0,0,1-1.42-1.72,5.32,5.32,0,0,1-.53-2.49,5.77,5.77,0,0,1,2.52-4.89,8.57,8.57,0,0,1,2.59-1.22,10.83,10.83,0,0,1,2.95-.41,13.5,13.5,0,0,1,3.3.39,8.22,8.22,0,0,1,2.75,1.24,6.16,6.16,0,0,1,1.88,2.17,6.64,6.64,0,0,1,.7,3.14h-4.59a3,3,0,0,0-1.22-2.53,5.53,5.53,0,0,0-3-.73,4.2,4.2,0,0,0-2.3.61,2,2,0,0,0-1,1.84,1.86,1.86,0,0,0,.24,1,2,2,0,0,0,.84.66,12.45,12.45,0,0,0,1.6.59c.67.2,1.75.5,3.26.88a2.73,2.73,0,0,1,.49.12.52.52,0,0,0,.18,0,20.55,20.55,0,0,1,2,.6,8.83,8.83,0,0,1,1.9,1,5.69,5.69,0,0,1,1.66,1.84,5.6,5.6,0,0,1,.66,2.8,6.13,6.13,0,0,1-2.35,5,10.19,10.19,0,0,1-6.61,1.92,12.79,12.79,0,0,1-3.49-.46,8.78,8.78,0,0,1-2.92-1.4,6.74,6.74,0,0,1-2-2.42,7.43,7.43,0,0,1-.74-3.39Z"/><path class="cls-1" d="M444,141.24h4.86l8.05,21.54H452l-1.63-4.8h-8.06l-1.69,4.8h-4.8Zm-.46,13.21h5.59l-2.72-7.9h-.06Z"/></g></g></svg>