<?xml version="1.0" encoding="utf-8"?>
<!-- Generator: Adobe Illustrator 26.0.3, SVG Export Plug-In . SVG Version: 6.00 Build 0)  -->
<svg version="1.1" id="Livello_1" xmlns="http://www.w3.org/2000/svg" xmlns:xlink="http://www.w3.org/1999/xlink" x="0px" y="0px"
	 viewBox="0 0 26.1 24" style="enable-background:new 0 0 26.1 24;" xml:space="preserve">
<style type="text/css">
	.st0{fill:#FFFFFF;fill-opacity:0;}
	.st1{fill:#333333;}
</style>
<g id="Raggruppa_3" transform="translate(-221.949 -18.95)">
	<rect id="Rettangolo_4" x="223" y="19" class="st0" width="24" height="24"/>
	<path class="st1" d="M240.7,20c-2.2,0-4.2,1.2-5.2,3.2l-0.5,0.9l-0.5-0.9c-1.1-1.9-3.1-3.1-5.3-3.2c-3.5,0.2-6.3,3.2-6.2,6.8
		c0,4.5,4.9,9.6,9,13c1.7,1.5,4.2,1.5,6,0c4.1-3.4,9-8.5,9-13C247.1,23.3,244.3,20.2,240.7,20z M246,26.9c0,3.1-3.1,7.5-8.5,12.1
		l-0.2,0.1c-0.7,0.6-1.5,0.9-2.3,0.9s-1.7-0.3-2.3-0.9c-5.5-4.6-8.6-9.1-8.6-12.3c-0.2-3,2.2-5.6,5.2-5.8c3.1,0.2,5.4,2.8,5.3,5.8
		c0,0.2,0.2,0.5,0.5,0.5h0c0.1,0,0.3-0.1,0.3-0.1c0.1-0.1,0.1-0.2,0.1-0.3c-0.2-3,2.2-5.6,5.2-5.8C243.8,21.2,246.1,23.8,246,26.9z"
		/>
</g>
</svg>
