<?xml version="1.0" encoding="utf-8"?>
<!-- Generator: Adobe Illustrator 26.0.3, SVG Export Plug-In . SVG Version: 6.00 Build 0)  -->
<svg version="1.1" id="Livello_1" xmlns="http://www.w3.org/2000/svg" xmlns:xlink="http://www.w3.org/1999/xlink" x="0px" y="0px"
	 viewBox="0 0 24 24" style="enable-background:new 0 0 24 24;" xml:space="preserve">
<style type="text/css">
	.st0{fill:#FFFFFF;fill-opacity:0;}
	.st1{fill:#333333;}
</style>
<g id="Raggruppa_3" transform="translate(-223 -19)">
	<rect id="Rettangolo_4" x="223" y="19" class="st0" width="24" height="24"/>
	<path class="st1" d="M241.2,37.6c0.1,0.1,0.3,0.1,0.5,0c0.1-0.1,0.1-0.1,0.1-0.2s0-0.2-0.1-0.2l-6.2-6.2l6.2-6.2
		c0.1-0.1,0.1-0.3,0-0.5l-0.1-0.1c-0.1-0.1-0.3-0.1-0.4,0l-6.2,6.2l-6.2-6.2c-0.1-0.1-0.3-0.1-0.5,0c-0.1,0.1-0.1,0.3,0,0.5l6.2,6.2
		l-6.2,6.2c-0.1,0.1-0.1,0.3,0,0.5c0.1,0.1,0.3,0.1,0.5,0l6.2-6.2L241.2,37.6z"/>
</g>
</svg>
