<?xml version="1.0" encoding="utf-8"?>
<!-- Generator: Adobe Illustrator 26.0.3, SVG Export Plug-In . SVG Version: 6.00 Build 0)  -->
<svg version="1.1" id="Livello_1" xmlns="http://www.w3.org/2000/svg" xmlns:xlink="http://www.w3.org/1999/xlink" x="0px" y="0px"
	 viewBox="0 0 24.3 24" style="enable-background:new 0 0 24.3 24;" xml:space="preserve">
<style type="text/css">
	.st0{fill:#FFFFFF;fill-opacity:0;}
	.st1{fill:#5D5D5D;}
</style>
<g id="Raggruppa_11270" transform="translate(-644.88 -4961)">
	<rect id="Rettangolo_4" x="645" y="4961" class="st0" width="24" height="24"/>
	<path class="st1" d="M647.7,4983l3.2-3.2l0.3,0.2c1.7,1,3.7,1.6,5.7,1.6c5.7,0,9-3.9,10.4-6.3c0.9-1.4,0.9-3.1,0-4.4l0,0
		c-0.8-1.4-1.9-2.6-3.1-3.6l-0.4-0.4l3.1-3.1c0.1-0.1,0.2-0.2,0.2-0.3c0-0.1,0-0.2-0.1-0.3c-0.2-0.2-0.5-0.2-0.7,0l-3.2,3.3
		l-0.3-0.2c-1.7-1-3.7-1.6-5.7-1.6c0,0-0.1,0-0.1,0c-5.7,0-9,3.9-10.4,6.3c-0.8,1.4-0.8,3.1,0,4.4c0.8,1.4,1.9,2.6,3.1,3.6l0.4,0.4
		l-3.1,3.1c-0.2,0.2-0.2,0.5,0,0.7C647.2,4983.2,647.5,4983.2,647.7,4983z M663.2,4967.5l0.3,0.3c1.2,1,2.3,2.2,3.1,3.5
		c0.5,0.8,0.6,1.7,0.4,2.5l0.2,0l-0.6,1c-1.3,2.2-4.4,5.8-9.6,5.8c0,0,0,0-0.1,0c-1.7,0-3.3-0.4-4.8-1.2l-0.6-0.3l2.7-2.7l0.3,0.2
		c2,1.3,4.7,0.8,6-1.2c1-1.4,1-3.3,0-4.8l-0.2-0.3L663.2,4967.5z M654.3,4975.1l-0.3-0.6c-0.2-0.5-0.3-1-0.3-1.5l0,0
		c0-0.9,0.4-1.8,1-2.4c0.6-0.6,1.5-1,2.4-1c0.5,0,1,0.1,1.5,0.3l0.6,0.3L654.3,4975.1z M659.7,4970.9l0.3,0.6c0.2,0.4,0.3,1,0.3,1.5
		l0,0c0,1.9-1.5,3.4-3.4,3.4c-0.5,0-1-0.1-1.5-0.3l-0.6-0.3L659.7,4970.9z M648.3,4976.1v0.2l-0.9-1.5c-0.7-1.1-0.7-2.4,0-3.5
		c1.3-2.2,4.4-5.9,9.7-5.8c1.7,0,3.3,0.4,4.8,1.2l0.6,0.3l-2.7,2.7l-0.3-0.2c-1-0.6-2.1-0.9-3.2-0.6c-1.1,0.2-2.1,0.9-2.7,1.8
		c-1,1.4-1,3.3,0,4.8l0.2,0.3l-2.8,2.8l-0.4-0.3C649.7,4977.6,648.9,4976.9,648.3,4976.1z"/>
</g>
</svg>
