<?xml version="1.0" encoding="utf-8"?>
<!-- Generator: Adobe Illustrator 26.0.3, SVG Export Plug-In . SVG Version: 6.00 Build 0)  -->
<svg version="1.1" id="Livello_1" xmlns="http://www.w3.org/2000/svg" xmlns:xlink="http://www.w3.org/1999/xlink" x="0px" y="0px"
	 viewBox="0 0 24 24" style="enable-background:new 0 0 24 24;" xml:space="preserve">
<style type="text/css">
	.st0{fill:#FFFFFF;fill-opacity:0;}
	.st1{fill:#103556;}
</style>
<g id="Raggruppa_10678" transform="translate(-923 -4961)">
	<rect id="Rettangolo_4" x="923" y="4961" class="st0" width="24" height="24"/>
	<path class="st1" d="M941.3,4964h-11.7c-2,0-3.7,1.6-3.7,3.7v10c0,2,1.6,3.7,3.7,3.7h11.7c2,0,3.7-1.6,3.7-3.7v-10
		C945,4965.6,943.4,4964,941.3,4964z M944.3,4977.7c0,1.7-1.3,3-3,3h-11.7c-1.7,0-3-1.3-3-3v-10l6.2,6.2c1.4,1.4,3.8,1.4,5.2,0
		l6.2-6.2V4977.7z M944.2,4966.9l-6.6,6.6c-0.6,0.6-1.4,0.9-2.1,0.9c-0.8,0-1.5-0.3-2.1-0.9l-6.6-6.6l0.1-0.3
		c0.5-1.1,1.5-1.9,2.8-1.9h11.7c1.2,0,2.3,0.7,2.8,1.9L944.2,4966.9z"/>
</g>
</svg>
