<svg xmlns="http://www.w3.org/2000/svg" width="24" height="24" viewBox="0 0 24 24">
  <g id="Raggruppa_11278" data-name="Raggruppa 11278" transform="translate(-1100 -3656)">
    <rect id="Rettangolo_4034" data-name="Rettangolo 4034" width="24" height="24" transform="translate(1100 3656)" fill="#fff" opacity="0"/>
    <g id="download_2_" data-name="download (2)" transform="translate(1102 3656)">
      <path id="Tracciato_2969" data-name="Tracciato 2969" d="M0,0H20V18H0Z" fill="none"/>
      <path id="Tracciato_2970" data-name="Tracciato 2970" d="M3.9,7.286H.556A.554.554,0,0,0,0,7.848v8.985a.554.554,0,0,0,.557.561H3.9a.553.553,0,0,0,.556-.561V7.848A.553.553,0,0,0,3.9,7.286ZM20,8.35a1.769,1.769,0,0,0-1.813-1.84H12.8a6.139,6.139,0,0,0,.462-4.778A2.408,2.408,0,0,0,11.139,0l-.016,0A1.17,1.17,0,0,0,9.889,1.08C9.751,2.5,9.134,5.01,8.251,5.9A7.836,7.836,0,0,1,5.815,7.486c-.152.075-.32.157-.5.246q0,.058.005.117v8.893l.377.13A15.234,15.234,0,0,0,11.248,18h4.36a1.769,1.769,0,0,0,1.812-1.841,2,2,0,0,0-.163-.793,1.718,1.718,0,0,0,1-.559,1.9,1.9,0,0,0,.453-1.251,2,2,0,0,0-.163-.792A1.773,1.773,0,0,0,20,10.954a1.915,1.915,0,0,0-.494-1.3A1.917,1.917,0,0,0,20,8.35Z" fill="#e8e8eb"/>
    </g>
  </g>
</svg>
