<?xml version="1.0" encoding="utf-8"?>
<!-- Generator: Adobe Illustrator 26.0.3, SVG Export Plug-In . SVG Version: 6.00 Build 0)  -->
<svg version="1.1" id="Livello_1" xmlns="http://www.w3.org/2000/svg" xmlns:xlink="http://www.w3.org/1999/xlink" x="0px" y="0px"
	 viewBox="0 0 24.3 24" style="enable-background:new 0 0 24.3 24;" xml:space="preserve">
<style type="text/css">
	.st0{fill:#FFFFFF;fill-opacity:0;}
	.st1{fill:#5D5D5D;}
</style>
<g id="Raggruppa_10679" transform="translate(-644.87 -4961)">
	<rect id="Rettangolo_4" x="645" y="4961" class="st0" width="24" height="24"/>
	<g id="fi-rr-eye" transform="translate(645.443 4961.344)">
		<path class="st1" d="M11.6,3.2c-5.7,0-9,3.9-10.4,6.3c-0.8,1.4-0.8,3.1,0,4.4c1.4,2.3,4.7,6.3,10.4,6.3c5.7,0,9-3.9,10.4-6.3
			c0.8-1.4,0.8-3.1,0-4.4v0C20.5,7.1,17.3,3.2,11.6,3.2z M21.2,13.4c-1.3,2.2-4.4,5.8-9.6,5.8c-5.3,0-8.3-3.7-9.6-5.8
			c-0.7-1.1-0.7-2.4,0-3.5c1.3-2.2,4.4-5.8,9.6-5.8c5.3,0,8.3,3.7,9.6,5.8C21.9,11,21.9,12.3,21.2,13.4z"/>
		<path class="st1" d="M11.6,7.3c-2.4,0-4.3,1.9-4.3,4.3c0,2.4,1.9,4.3,4.3,4.3c2.4,0,4.3-1.9,4.3-4.3C15.9,9.3,13.9,7.3,11.6,7.3z
			 M11.6,15C11.6,15,11.6,15,11.6,15c-0.9,0-1.8-0.4-2.4-1c-0.6-0.6-1-1.5-1-2.4c0-0.9,0.4-1.8,1-2.4c0.6-0.6,1.5-1,2.4-1
			c0,0,0,0,0,0c0.9,0,1.8,0.4,2.4,1c0.6,0.6,1,1.5,1,2.4C14.9,13.5,13.4,15,11.6,15z"/>
	</g>
</g>
</svg>
