<?xml version="1.0" encoding="utf-8"?>
<!-- Generator: Adobe Illustrator 26.0.3, SVG Export Plug-In . SVG Version: 6.00 Build 0)  -->
<svg version="1.1" id="Livello_1" xmlns="http://www.w3.org/2000/svg" xmlns:xlink="http://www.w3.org/1999/xlink" x="0px" y="0px"
	 viewBox="0 0 24 24" style="enable-background:new 0 0 24 24;" xml:space="preserve">
<style type="text/css">
	.st0{fill:#FFFFFF;fill-opacity:0;}
	.st1{fill:#333333;}
</style>
<g id="Raggruppa_10456" transform="translate(0.162)">
	<rect id="Rettangolo_3" x="-0.2" class="st0" width="24" height="24"/>
	<path class="st1" d="M17.6,16.2c0,0.2,0.2,0.4,0.4,0.4c0.2,0,0.4-0.2,0.5-0.4c-0.1-3.7-3.2-6.6-6.9-6.5H5.7L7.4,8
		c0.2-0.2,0.2-0.4,0-0.5c-0.2-0.2-0.4-0.2-0.6,0L4.3,9.8c-0.2,0.2-0.2,0.4,0,0.5l2.4,2.3c0.2,0.2,0.4,0.2,0.6,0
		c0.2-0.2,0.1-0.4,0-0.5l-1.7-1.6h5.9c0,0,0.1,0,0.1,0C14.9,10.5,17.5,13,17.6,16.2z"/>
</g>
</svg>
