<?xml version="1.0" encoding="utf-8"?>
<!-- Generator: Adobe Illustrator 26.0.3, SVG Export Plug-In . SVG Version: 6.00 Build 0)  -->
<svg version="1.1" id="Livello_1" xmlns="http://www.w3.org/2000/svg" xmlns:xlink="http://www.w3.org/1999/xlink" x="0px" y="0px"
	 viewBox="0 0 24 24" style="enable-background:new 0 0 24 24;" xml:space="preserve">
<style type="text/css">
	.st0{fill:#FFFFFF;fill-opacity:0;}
	.st1{fill:#333333;}
</style>
<g id="Raggruppa_4" transform="translate(-4 -4)">
	<rect id="Rettangolo_4" x="4" y="4" class="st0" width="24" height="24"/>
	<path class="st1" d="M22.7,12.8c-0.2-2.3-1.3-4.4-3.1-5.8c-1.8-1.5-4-2.1-6.4-1.9C11,5.3,8.9,6.4,7.4,8.2c-1.5,1.8-2.1,4-1.9,6.4
		c0.2,2.3,1.3,4.4,3.1,5.8c3.2,2.6,7.8,2.6,11,0l0.4-0.3l5.8,5.8c0.2,0.2,0.4,0.2,0.6,0c0.1-0.1,0.1-0.2,0.1-0.3
		c0-0.1,0-0.2-0.1-0.3l-5.8-5.8l0.3-0.3C22.3,17.4,23,15.1,22.7,12.8z M14.1,21.5c-4.3,0-7.8-3.5-7.8-7.8c0-4.3,3.5-7.8,7.8-7.8
		c4.3,0,7.8,3.5,7.8,7.8C22,18,18.5,21.5,14.1,21.5z"/>
</g>
</svg>
