<svg xmlns="http://www.w3.org/2000/svg" width="24" height="24" viewBox="0 0 24 24">
  <g id="Raggruppa_10671" data-name="Raggruppa 10671" transform="translate(0 -5)">
    <rect id="Rettangolo_4" data-name="Rettangolo 4" width="24" height="24" transform="translate(0 5)" fill="#fff" opacity="0"/>
    <path id="fi-rr-plus" d="M11.5,5.5h-5V.5A.5.5,0,0,0,6,0H6a.5.5,0,0,0-.5.5v5H.5A.5.5,0,0,0,0,6H0a.5.5,0,0,0,.5.5h5v5A.5.5,0,0,0,6,12H6a.5.5,0,0,0,.5-.5v-5h5A.5.5,0,0,0,12,6h0A.5.5,0,0,0,11.5,5.5Z" transform="translate(6 11)" fill="#5d5d5d"/>
  </g>
</svg>
