<?xml version="1.0" encoding="utf-8"?>
<!-- Generator: Adobe Illustrator 26.0.3, SVG Export Plug-In . SVG Version: 6.00 Build 0)  -->
<svg version="1.1" id="Livello_1" xmlns="http://www.w3.org/2000/svg" xmlns:xlink="http://www.w3.org/1999/xlink" x="0px" y="0px"
	 viewBox="0 0 24 24" style="enable-background:new 0 0 24 24;" xml:space="preserve">
<style type="text/css">
	.st0{fill:#FFFFFF;fill-opacity:0;}
	.st1{fill:#103556;}
</style>
<g id="Raggruppa_10680" transform="translate(-645 -4961)">
	<rect id="Rettangolo_4" x="645" y="4961" class="st0" width="24" height="24"/>
	<g id="fi-rr-clock" transform="translate(647 4963)">
		<path class="st1" d="M10,0.5c-5.2,0-9.5,4.3-9.5,9.5s4.3,9.5,9.5,9.5s9.5-4.3,9.5-9.5S15.2,0.5,10,0.5z M10,18.8
			c-4.9,0-8.8-4-8.8-8.8c0-4.9,4-8.8,8.8-8.8c4.9,0,8.8,4,8.8,8.8C18.8,14.9,14.9,18.8,10,18.8z"/>
		<path class="st1" d="M9.9,5.4V10l-3.6,2.3c-0.2,0.1-0.3,0.5-0.2,0.7s0.5,0.3,0.7,0.2l3.8-2.4c0.1-0.1,0.2-0.3,0.2-0.4V5.4
			c0-0.3-0.2-0.5-0.5-0.5S9.9,5.1,9.9,5.4z"/>
	</g>
</g>
</svg>
