<svg xmlns="http://www.w3.org/2000/svg" width="24" height="24" viewBox="0 0 24 24">
  <g id="Raggruppa_11279" data-name="Raggruppa 11279" transform="translate(-1144 -3656)">
    <rect id="Rettangolo_4035" data-name="Rettangolo 4035" width="24" height="24" transform="translate(1144 3656)" fill="#fff" opacity="0"/>
    <g id="download_2_" data-name="download (2)" transform="translate(1146 3661)">
      <path id="Tracciato_2969" data-name="Tracciato 2969" d="M0,18H20V0H0Z" transform="translate(0)" fill="none"/>
      <path id="Tracciato_2970" data-name="Tracciato 2970" d="M3.9,10.714H.556A.554.554,0,0,1,0,10.152V1.167A.554.554,0,0,1,.557.606H3.9a.553.553,0,0,1,.556.561v8.985a.553.553,0,0,1-.557.562ZM20,9.65a1.769,1.769,0,0,1-1.813,1.84H12.795a6.139,6.139,0,0,1,.462,4.778A2.408,2.408,0,0,1,11.139,18l-.016,0A1.17,1.17,0,0,1,9.889,16.92c-.138-1.42-.755-3.93-1.638-4.82a7.836,7.836,0,0,0-2.436-1.586c-.152-.075-.32-.157-.5-.246q0-.058.005-.117V1.258l.377-.13A15.233,15.233,0,0,1,11.248,0h4.36A1.769,1.769,0,0,1,17.42,1.841a2,2,0,0,1-.163.793,1.718,1.718,0,0,1,1,.559,1.9,1.9,0,0,1,.453,1.251,2,2,0,0,1-.163.792A1.773,1.773,0,0,1,20,7.046a1.915,1.915,0,0,1-.494,1.3A1.917,1.917,0,0,1,20,9.65Z" transform="translate(0 0)" fill="#e8e8eb"/>
    </g>
  </g>
</svg>
