<?xml version="1.0" encoding="utf-8"?>
<!-- Generator: Adobe Illustrator 26.0.3, SVG Export Plug-In . SVG Version: 6.00 Build 0)  -->
<svg version="1.1" id="Livello_1" xmlns="http://www.w3.org/2000/svg" xmlns:xlink="http://www.w3.org/1999/xlink" x="0px" y="0px"
	 viewBox="0 0 24 24" style="enable-background:new 0 0 24 24;" xml:space="preserve">
<style type="text/css">
	.st0{fill:#FFFFFF;fill-opacity:0;}
	.st1{fill:#333333;}
</style>
<g id="Raggruppa_11269" transform="translate(0 24) rotate(-90)">
	
		<rect id="Rettangolo_4" transform="matrix(-2.535182e-06 -1 1 -2.535182e-06 3.042222e-05 24)" class="st0" width="24" height="24"/>
	<path class="st1" d="M5.7,9.8l4.6,4.6c0.5,0.5,1.1,0.7,1.7,0.7s1.3-0.3,1.7-0.7l4.6-4.6c0.1-0.1,0.1-0.2,0.1-0.3s0-0.2-0.1-0.3
		c-0.2-0.2-0.5-0.2-0.6,0l-4.6,4.6c-0.6,0.6-1.6,0.6-2.2,0L6.3,9.1C6.2,9,5.9,9,5.8,9.1C5.6,9.3,5.5,9.6,5.7,9.8z"/>
</g>
</svg>
