<svg xmlns="http://www.w3.org/2000/svg" width="24" height="24" viewBox="0 0 24 24">
  <g id="Raggruppa_11276" data-name="Raggruppa 11276" transform="translate(20489 -320)">
    <rect id="Rettangolo_4033" data-name="Rettangolo 4033" width="24" height="24" transform="translate(-20489 320)" fill="none"/>
    <path id="fi-rr-star" d="M23.839,8.795a3.179,3.179,0,0,0-3.067-2.226H16.4L15.075,2.432a3.227,3.227,0,0,0-6.147,0L7.6,6.569H3.231a3.227,3.227,0,0,0-1.9,5.833L4.888,15,3.535,19.189A3.228,3.228,0,0,0,8.52,22.784L12,20.221l3.482,2.559a3.227,3.227,0,0,0,4.984-3.591L19.115,15l3.56-2.6A3.177,3.177,0,0,0,23.839,8.795Z" transform="translate(-20489.008 320.193)" fill="#e8e8eb"/>
  </g>
</svg>
