<?xml version="1.0" encoding="utf-8"?>
<!-- Generator: Adobe Illustrator 26.0.3, SVG Export Plug-In . SVG Version: 6.00 Build 0)  -->
<svg version="1.1" id="Livello_1" xmlns="http://www.w3.org/2000/svg" xmlns:xlink="http://www.w3.org/1999/xlink" x="0px" y="0px"
	 viewBox="0 0 25 25" style="enable-background:new 0 0 25 25;" xml:space="preserve">
<style type="text/css">
	.st0{fill:#FFFFFF;fill-opacity:0;}
	.st1{fill:#333333;}
</style>
<g id="Raggruppa_2" transform="translate(-222.5 -18.5)">
	<rect id="Rettangolo_4" x="223" y="19" class="st0" width="24" height="24"/>
	<path class="st1" d="M223.5,38c0,2.5,2,4.5,4.5,4.5h14c2.5,0,4.5-2,4.5-4.5V28c0-1.4-1.1-2.5-2.5-2.5h-3.5V25c0-3-2.5-5.5-5.5-5.5
		c-3,0-5.5,2.5-5.5,5.5v0.5H226c-1.4,0-2.5,1.1-2.5,2.5V38z M230.5,25c0-2.5,2-4.5,4.5-4.5s4.5,2,4.5,4.5v0.5h-9V25z M224.5,28
		c0-0.8,0.7-1.5,1.5-1.5h3.5V29c0,0.3,0.2,0.5,0.5,0.5s0.5-0.2,0.5-0.5v-2.5h9V29c0,0.3,0.2,0.5,0.5,0.5s0.5-0.2,0.5-0.5v-2.5h3.5
		c0.8,0,1.5,0.7,1.5,1.5v10c0,1.9-1.6,3.5-3.5,3.5h-14c-1.9,0-3.5-1.6-3.5-3.5V28z"/>
</g>
</svg>
