<?xml version="1.0" encoding="utf-8"?>
<!-- Generator: Adobe Illustrator 26.0.3, SVG Export Plug-In . SVG Version: 6.00 Build 0)  -->
<svg version="1.1" id="Livello_1" xmlns="http://www.w3.org/2000/svg" xmlns:xlink="http://www.w3.org/1999/xlink" x="0px" y="0px"
	 viewBox="0 0 24 24" style="enable-background:new 0 0 24 24;" xml:space="preserve">
<style type="text/css">
	.st0{fill:#FFFFFF;fill-opacity:0;}
	.st1{fill:#333333;}
</style>
<g id="Raggruppa_10398" transform="translate(-1053 -4769)">
	<rect id="Rettangolo_4" x="1053" y="4769" class="st0" width="24" height="24"/>
	<g id="Raggruppa_10397">
		<g id="Raggruppa_10396">
			<path class="st1" d="M1062.5,4789.2h-6.7c-0.3,0-0.5,0.2-0.5,0.5s0.2,0.5,0.5,0.5h6.7c0.3,0,0.5-0.2,0.5-0.5
				S1062.8,4789.2,1062.5,4789.2z"/>
			<path class="st1" d="M1060.8,4785.9h-5c-0.3,0-0.5,0.2-0.5,0.5c0,0.3,0.2,0.5,0.5,0.5h5c0.3,0,0.5-0.2,0.5-0.5
				S1061.1,4785.9,1060.8,4785.9z"/>
			<path class="st1" d="M1059.2,4782.5h-3.3c-0.3,0-0.5,0.2-0.5,0.5s0.2,0.5,0.5,0.5h3.3c0.3,0,0.5-0.2,0.5-0.5
				S1059.4,4782.5,1059.2,4782.5z"/>
		</g>
		<path class="st1" d="M1074.6,4781.4c0.5-5.3-3.4-10-8.7-10.5c-5.3-0.5-10,3.4-10.5,8.7c0,0.1,0,0.3,0.1,0.4
			c0.1,0.1,0.2,0.2,0.3,0.2c0.2,0,0.5-0.2,0.5-0.4c0.4-4.2,3.7-7.5,7.9-7.9c2.3-0.2,4.6,0.5,6.3,2c1.8,1.5,2.9,3.6,3.1,5.9
			c0.2,2.3-0.5,4.6-2,6.3c-1.5,1.8-3.6,2.9-5.9,3.1c-0.3,0-0.5,0.2-0.5,0.5c0,0.1,0.1,0.2,0.1,0.3c0.1,0.1,0.2,0.1,0.3,0.1h0v0.3
			l0,0l0-0.4C1070.5,4789.7,1074.2,4786,1074.6,4781.4z"/>
		<path class="st1" d="M1067.2,4783.3c0.1,0.1,0.2,0.1,0.3,0.1c0,0,0,0,0,0c0.1,0,0.2,0,0.3-0.1s0.1-0.2,0.1-0.3s0-0.3-0.1-0.3
			l-2.4-2.4v-4c0-0.3-0.2-0.5-0.5-0.5h0c-0.3,0-0.5,0.2-0.5,0.5v4.2c0,0.1,0.1,0.3,0.1,0.3L1067.2,4783.3z"/>
	</g>
</g>
</svg>
