<?xml version="1.0" encoding="utf-8"?>
<!-- Generator: Adobe Illustrator 26.0.3, SVG Export Plug-In . SVG Version: 6.00 Build 0)  -->
<svg version="1.1" id="Livello_1" xmlns="http://www.w3.org/2000/svg" xmlns:xlink="http://www.w3.org/1999/xlink" x="0px" y="0px"
	 viewBox="0 0 24 24" style="enable-background:new 0 0 24 24;" xml:space="preserve">
<style type="text/css">
	.st0{fill:#FFFFFF;fill-opacity:0;}
	.st1{fill:#333333;}
</style>
<g id="Raggruppa_10391" transform="translate(-372 -4769)">
	<rect id="Rettangolo_4" x="372" y="4769" class="st0" width="24" height="24"/>
	<g id="Raggruppa_10390">
		<circle class="st1" cx="378.3" cy="4784" r="1.1"/>
		<path class="st1" d="M377.8,4773.4c-2.2,0-4,1.8-4.1,4v7.2c0,2.2,1.8,4,4,4.1h12.5c2.2,0.1,4-1.8,4.1-4v-7.2c0-2.2-1.8-4-4-4.1
			l-0.1-0.4v0.4H377.8z M393.3,4784.6c0,0.8-0.3,1.5-0.8,2.1c-0.6,0.6-1.3,0.9-2.1,0.9h-12.5c0,0,0,0-0.1,0c-0.8,0-1.5-0.3-2.1-0.8
			c-0.6-0.6-0.9-1.3-0.9-2.1v-5.8h18.5V4784.6z M390.3,4774.4c1.6,0,3,1.3,3,2.9l0,0.5h-18.5l0-0.4c0-1.7,1.3-3,2.9-3L390.3,4774.4
			C390.2,4774.4,390.3,4774.4,390.3,4774.4z"/>
	</g>
</g>
</svg>
