<?xml version="1.0" encoding="utf-8"?>
<!-- Generator: Adobe Illustrator 26.0.3, SVG Export Plug-In . SVG Version: 6.00 Build 0)  -->
<svg version="1.1" id="Livello_1" xmlns="http://www.w3.org/2000/svg" xmlns:xlink="http://www.w3.org/1999/xlink" x="0px" y="0px"
	 viewBox="0 0 24 24" style="enable-background:new 0 0 24 24;" xml:space="preserve">
<style type="text/css">
	.st0{fill:#FFFFFF;fill-opacity:0;}
	.st1{fill:#333333;}
</style>
<g id="Raggruppa_11266" transform="translate(-96 -132)">
	<rect id="Rettangolo_4" x="96" y="132" class="st0" width="24" height="24"/>
	<path class="st1" d="M101.7,141.8l4.6,4.6c0.9,0.9,2.5,0.9,3.5,0l4.6-4.6c0.1-0.1,0.1-0.2,0.1-0.3c0-0.1-0.1-0.2-0.1-0.3
		c-0.2-0.2-0.4-0.2-0.6,0l-4.6,4.6c-0.6,0.6-1.6,0.6-2.2,0l-4.6-4.6c-0.1-0.1-0.2-0.1-0.3-0.1s-0.2,0-0.3,0.1
		C101.5,141.3,101.5,141.6,101.7,141.8z"/>
</g>
</svg>
