<?xml version="1.0" encoding="utf-8"?>
<!-- Generator: Adobe Illustrator 26.0.3, SVG Export Plug-In . SVG Version: 6.00 Build 0)  -->
<svg version="1.1" id="Livello_1" xmlns="http://www.w3.org/2000/svg" xmlns:xlink="http://www.w3.org/1999/xlink" x="0px" y="0px"
	 viewBox="0 0 24 24" style="enable-background:new 0 0 24 24;" xml:space="preserve">
<style type="text/css">
	.st0{fill:#FFFFFF;fill-opacity:0;}
	.st1{fill:#103556;}
</style>
<g id="Raggruppa_10872" transform="translate(-923 -4961)">
	<rect id="Rettangolo_4" x="923" y="4961" class="st0" width="24" height="24"/>
	<g id="fi-rr-comment" transform="translate(925.011 4963.024)">
		<path class="st1" d="M0.5,10.6c0.3,5,4.5,8.9,9.5,8.9h5.8c2,0,3.7-1.6,3.7-3.7l0-6.4c-0.3-5-4.5-8.9-9.5-8.9c-0.2,0-0.4,0-0.6,0
			C4.2,0.8,0.2,5.3,0.5,10.6z M8.9,1.2c0.4,0,0.8-0.1,1.2-0.1c2,0,4,0.7,5.6,2c1.9,1.5,3,3.8,3.2,6.2l0,6.4c0,1.7-1.3,3-3,3H10
			c-2.5,0-4.9-1.1-6.6-3C1.7,14,0.9,11.5,1.2,9C1.7,4.9,4.8,1.8,8.9,1.2z"/>
		<path class="st1" d="M10,6.3H6.7c-0.2,0-0.3,0.1-0.3,0.3S6.5,7,6.7,7H10c0.2,0,0.3-0.1,0.3-0.3S10.2,6.3,10,6.3z"/>
		<path class="st1" d="M6.7,9.7c-0.2,0-0.3,0.1-0.3,0.3s0.1,0.3,0.3,0.3h6.7c0.2,0,0.3-0.1,0.3-0.3s-0.1-0.3-0.3-0.3H6.7z"/>
		<path class="st1" d="M6.7,13c-0.2,0-0.3,0.1-0.3,0.3c0,0.2,0.1,0.3,0.3,0.3h6.7c0.2,0,0.3-0.1,0.3-0.3c0-0.2-0.1-0.3-0.3-0.3H6.7z
			"/>
	</g>
</g>
</svg>
