<svg id="Raggruppa_9767" data-name="Raggruppa 9767" xmlns="http://www.w3.org/2000/svg" width="24" height="24" viewBox="0 0 24 24">
  <rect id="Rettangolo_1216" data-name="Rettangolo 1216" width="24" height="24" fill="#fff" opacity="0"/>
  <g id="search" transform="translate(1.5 1.5)">
    <path id="Tracciato_2911" data-name="Tracciato 2911" d="M4.654,12.961l-.731,2.729-2.672.057a10.518,10.518,0,0,1-.077-9.8h0l2.379.436L4.6,8.742a6.266,6.266,0,0,0,.059,4.219Z" transform="translate(0 -0.27)" fill="#fbbb00"/>
    <path id="Tracciato_2912" data-name="Tracciato 2912" d="M21.328,8.945a10.5,10.5,0,0,1-3.743,10.15h0l-3-.153-.424-2.647a6.258,6.258,0,0,0,2.693-3.2H11.242V8.945H21.328Z" transform="translate(-0.511 -0.407)" fill="#518ef8"/>
    <path id="Tracciato_2913" data-name="Tracciato 2913" d="M17.132,19.292h0A10.5,10.5,0,0,1,1.311,16.08l3.4-2.785a6.245,6.245,0,0,0,9,3.2Z" transform="translate(-0.06 -0.604)" fill="#28b446"/>
    <path id="Tracciato_2914" data-name="Tracciato 2914" d="M17.258,2.417,13.856,5.2A6.244,6.244,0,0,0,4.651,8.472l-3.421-2.8h0A10.5,10.5,0,0,1,17.258,2.417Z" transform="translate(-0.056)" fill="#f14336"/>
  </g>
</svg>
