<?xml version="1.0" encoding="utf-8"?>
<!-- Generator: Adobe Illustrator 26.0.3, SVG Export Plug-In . SVG Version: 6.00 Build 0)  -->
<svg version="1.1" id="Livello_1" xmlns="http://www.w3.org/2000/svg" xmlns:xlink="http://www.w3.org/1999/xlink" x="0px" y="0px"
	 viewBox="0 0 25 25" style="enable-background:new 0 0 25 25;" xml:space="preserve">
<style type="text/css">
	.st0{fill:#FFFFFF;fill-opacity:0;}
	.st1{fill:#5D5D5D;}
</style>
<g id="Raggruppa_10679" transform="translate(-644.5 -4960.5)">
	<rect id="Rettangolo_4" x="645" y="4961" class="st0" width="24" height="24"/>
	<g id="fi-rr-interrogation" transform="translate(645 4961)">
		<path class="st1" d="M12,0.5C5.7,0.5,0.5,5.7,0.5,12c0,6.3,5.2,11.5,11.5,11.5c6.3,0,11.5-5.2,11.5-11.5C23.5,5.7,18.3,0.5,12,0.5
			z M12,22.5C6.2,22.5,1.5,17.8,1.5,12C1.5,6.2,6.2,1.5,12,1.5c5.8,0,10.5,4.7,10.5,10.5C22.5,17.8,17.8,22.5,12,22.5z"/>
		<path class="st1" d="M13.7,12.1c0.8-0.5,1.4-1.2,1.7-2.1c0.3-0.9,0.2-1.8-0.3-2.7c-0.5-0.9-1.4-1.6-2.4-1.8l0,0
			c-0.9-0.2-1.8,0-2.6,0.6C9.2,6.7,8.7,7.5,8.6,8.4c0,0.2-0.1,0.4-0.1,0.6c0,0.3,0.2,0.5,0.5,0.5S9.5,9.3,9.5,9
			c0-0.7,0.3-1.3,0.7-1.8s1.1-0.7,1.8-0.7c0.2,0,0.3,0,0.5,0c1,0.2,1.8,1,2,2c0.2,1.1-0.3,2.1-1.2,2.7c-1.1,0.6-1.7,1.8-1.7,3.1V15
			c0,0.3,0.2,0.5,0.5,0.5s0.5-0.2,0.5-0.5v-0.7C12.5,13.4,12.9,12.6,13.7,12.1z"/>
		<circle class="st1" cx="12" cy="18" r="0.5"/>
	</g>
</g>
</svg>
