<?xml version="1.0" encoding="utf-8"?>
<!-- Generator: Adobe Illustrator 26.0.3, SVG Export Plug-In . SVG Version: 6.00 Build 0)  -->
<svg version="1.1" id="Livello_1" xmlns="http://www.w3.org/2000/svg" xmlns:xlink="http://www.w3.org/1999/xlink" x="0px" y="0px"
	 viewBox="0 0 24 24" style="enable-background:new 0 0 24 24;" xml:space="preserve">
<style type="text/css">
	.st0{fill:#FFFFFF;fill-opacity:0;}
	.st1{fill:#333333;}
</style>
<g id="Raggruppa_10400" transform="translate(-1362 -4769)">
	<rect id="Rettangolo_4" x="1362" y="4769" class="st0" width="24" height="24"/>
	<path class="st1" d="M1368.2,4788.7h11.7c0,0,0,0,0,0c2.1,0,3.8-1.7,3.8-3.8v-5.8c0-1-0.4-2-1.1-2.7l0,0c-0.7-0.7-1.7-1.1-2.7-1.1
		c0,0,0,0,0,0h-14.4l4.2-4.2c0.2-0.2,0.2-0.5,0-0.7c-0.2-0.2-0.5-0.2-0.7,0l-4.1,4.1c-0.3,0.3-0.5,0.7-0.5,1.2
		c0,0.5,0.2,0.9,0.5,1.2l4.1,4.1c0.2,0.2,0.5,0.2,0.7,0c0.2-0.2,0.2-0.5,0-0.7l-4.2-4.2h14.4c0,0,0,0,0,0c1.6,0,2.8,1.3,2.8,2.8v5.8
		c0,1.6-1.3,2.8-2.8,2.8c0,0,0,0,0,0h-11.7c-0.3,0-0.5,0.2-0.5,0.5S1367.9,4788.7,1368.2,4788.7z"/>
</g>
</svg>
