<?xml version="1.0" encoding="utf-8"?>
<!-- Generator: Adobe Illustrator 26.0.3, SVG Export Plug-In . SVG Version: 6.00 Build 0)  -->
<svg version="1.1" id="Livello_1" xmlns="http://www.w3.org/2000/svg" xmlns:xlink="http://www.w3.org/1999/xlink" x="0px" y="0px"
	 viewBox="0 0 24 24" style="enable-background:new 0 0 24 24;" xml:space="preserve">
<style type="text/css">
	.st0{fill:#FFFFFF;fill-opacity:0;}
	.st1{fill:#5D5D5D;}
</style>
<g id="Raggruppa_10678" transform="translate(-923 -4961)">
	<rect id="Rettangolo_4" x="923" y="4961" class="st0" width="24" height="24"/>
	<path class="st1" d="M925.5,4980.3v1.7c0,0.2,0.2,0.3,0.3,0.3h1.7c0,0,0,0,0,0c1,0,1.9-0.4,2.6-1.1l13.6-13.6c1-1,1-2.6,0-3.6
		l-0.1-0.1c-0.5-0.4-1.1-0.6-1.7-0.6c-0.6,0-1.3,0.2-1.8,0.7l-13.6,13.6C925.9,4978.4,925.5,4979.3,925.5,4980.3z M940.7,4964.5
		c0.7-0.7,1.9-0.7,2.6,0c0.7,0.7,0.7,1.9,0,2.6l-2.5,2.5l-2.6-2.6L940.7,4964.5z M937.7,4967.5l2.6,2.6l-10.7,10.7
		c-0.6,0.6-1.3,0.9-2.1,0.9h-1.4v-1.4c0-0.8,0.3-1.6,0.9-2.1L937.7,4967.5z"/>
</g>
</svg>
