<?xml version="1.0" encoding="utf-8"?>
<!-- Generator: Adobe Illustrator 26.0.3, SVG Export Plug-In . SVG Version: 6.00 Build 0)  -->
<svg version="1.1" id="Livello_1" xmlns="http://www.w3.org/2000/svg" xmlns:xlink="http://www.w3.org/1999/xlink" x="0px" y="0px"
	 viewBox="0 0 24 25" style="enable-background:new 0 0 24 25;" xml:space="preserve">
<style type="text/css">
	.st0{fill:#FFFFFF;fill-opacity:0;}
	.st1{fill:#333333;}
</style>
<g id="Raggruppa_7" transform="translate(-223 -18.5)">
	<rect id="Rettangolo_4" x="223" y="19" class="st0" width="24" height="24"/>
	<g id="fi-rr-user" transform="translate(223 19)">
		<path class="st1" d="M12,0.5C9,0.5,6.5,3,6.5,6S9,11.5,12,11.5c3,0,5.5-2.5,5.5-5.5S15,0.5,12,0.5z M12,10.5c-2.5,0-4.5-2-4.5-4.5
			s2-4.5,4.5-4.5s4.5,2,4.5,4.5S14.5,10.5,12,10.5z"/>
		<path class="st1" d="M12,15.5c4.1,0,7.5,3.4,7.5,7.5c0,0.3,0.2,0.5,0.5,0.5s0.5-0.2,0.5-0.5c0-4.7-3.8-8.5-8.5-8.5
			c-4.7,0-8.5,3.8-8.5,8.5c0,0.3,0.2,0.5,0.5,0.5s0.5-0.2,0.5-0.5C4.5,18.9,7.9,15.5,12,15.5z"/>
	</g>
</g>
</svg>
