<?xml version="1.0" encoding="utf-8"?>
<!-- Generator: Adobe Illustrator 26.0.3, SVG Export Plug-In . SVG Version: 6.00 Build 0)  -->
<svg version="1.1" id="Livello_1" xmlns="http://www.w3.org/2000/svg" xmlns:xlink="http://www.w3.org/1999/xlink" x="0px" y="0px"
	 viewBox="0 0 24 24" style="enable-background:new 0 0 24 24;" xml:space="preserve">
<style type="text/css">
	.st0{fill:#FFFFFF;fill-opacity:0;}
	.st1{fill:#333333;}
</style>
<g id="Raggruppa_10641" transform="translate(247 43) rotate(180)">
	<rect id="Rettangolo_4" x="223" y="19" class="st0" width="24" height="24"/>
	<path class="st1" d="M226.7,31c0,0.3,0.2,0.5,0.5,0.5h16l-5.9,5.9c-0.1,0.1-0.1,0.2-0.1,0.3s0.1,0.2,0.1,0.3
		c0.1,0.1,0.2,0.1,0.3,0.1s0.2,0,0.3-0.1l4.8-4.8c1.2-1.2,1.2-3.2,0-4.4l-4.8-4.8c-0.2-0.2-0.5-0.2-0.6,0c-0.1,0.1-0.1,0.3-0.1,0.4
		h0.1l0.2,0.4l5.8,5.8h-16C226.9,30.6,226.7,30.8,226.7,31z"/>
</g>
</svg>
