<?xml version="1.0" encoding="utf-8"?>
<!-- Generator: Adobe Illustrator 26.0.3, SVG Export Plug-In . SVG Version: 6.00 Build 0)  -->
<svg version="1.1" id="Livello_1" xmlns="http://www.w3.org/2000/svg" xmlns:xlink="http://www.w3.org/1999/xlink" x="0px" y="0px"
	 viewBox="0 0 24 24" style="enable-background:new 0 0 24 24;" xml:space="preserve">
<style type="text/css">
	.st0{fill:#333333;fill-opacity:0;}
	.st1{fill:#333333;}
</style>
<g id="Raggruppa_10401" transform="translate(43 -223) rotate(90)">
	
		<rect id="Rettangolo_4" x="223" y="19" transform="matrix(2.535182e-06 1 -1 2.535182e-06 265.9994 -204.0001)" class="st0" width="24" height="24"/>
	<g id="fi-rr-settings-sliders" transform="translate(226 40) rotate(-90)">
		<path class="st1" d="M17.2,2.3H8L8,2.1C7.8,1.5,7.4,0.9,6.8,0.6C6.2,0.3,5.5,0.2,4.8,0.3C4,0.6,3.3,1.3,3,2.1L3,2.3H0.8
			c-0.3,0-0.5,0.2-0.5,0.5s0.2,0.5,0.5,0.5H3L3,3.5C3.2,4.2,3.6,4.7,4.2,5c0.6,0.3,1.3,0.4,1.9,0.2C7,5,7.7,4.4,8,3.5L8,3.3h9.2
			c0.3,0,0.5-0.2,0.5-0.5S17.5,2.3,17.2,2.3z M6.6,3.9C6.3,4.2,5.9,4.4,5.5,4.4c0,0,0,0,0,0c-0.9,0-1.6-0.7-1.6-1.6
			c0-0.9,0.7-1.6,1.6-1.6h0c0.4,0,0.8,0.2,1.1,0.5C6.9,2,7.1,2.4,7.1,2.8C7.1,3.2,6.9,3.6,6.6,3.9z"/>
		<path class="st1" d="M17.2,8.5H15L15,8.3c-0.4-1.4-1.8-2.2-3.1-1.8C11,6.8,10.3,7.5,10,8.3L10,8.5H0.8C0.5,8.5,0.2,8.7,0.2,9
			s0.2,0.5,0.5,0.5H10L10,9.7c0.2,0.7,0.6,1.2,1.2,1.5c0.6,0.3,1.3,0.4,1.9,0.2c0.9-0.2,1.5-0.9,1.8-1.8L15,9.5h2.2
			c0.3,0,0.5-0.2,0.5-0.5S17.5,8.5,17.2,8.5z M12.5,10.6c-0.9,0-1.6-0.7-1.6-1.6s0.7-1.6,1.6-1.6s1.6,0.7,1.6,1.6
			S13.4,10.6,12.5,10.6z"/>
		<path class="st1" d="M17.2,14.7H8L8,14.5c-0.4-1.4-1.8-2.2-3.1-1.8C4,13,3.3,13.6,3,14.5L3,14.7H0.8c-0.3,0-0.5,0.2-0.5,0.5
			s0.2,0.5,0.5,0.5H3L3,15.9c0.4,1.4,1.8,2.2,3.1,1.8C7,17.4,7.7,16.7,8,15.9L8,15.7h9.2c0.3,0,0.5-0.2,0.5-0.5S17.5,14.7,17.2,14.7
			z M5.5,16.8c-0.9,0-1.6-0.7-1.6-1.6s0.7-1.6,1.6-1.6s1.6,0.7,1.6,1.6S6.4,16.8,5.5,16.8z"/>
	</g>
</g>
</svg>
