<?xml version="1.0" encoding="utf-8"?>
<!-- Generator: Adobe Illustrator 26.0.3, SVG Export Plug-In . SVG Version: 6.00 Build 0)  -->
<svg version="1.1" id="Livello_1" xmlns="http://www.w3.org/2000/svg" xmlns:xlink="http://www.w3.org/1999/xlink" x="0px" y="0px"
	 viewBox="0 0 24 24" style="enable-background:new 0 0 24 24;" xml:space="preserve">
<style type="text/css">
	.st0{fill:#FFFFFF;fill-opacity:0;}
	.st1{fill:#333333;}
</style>
<g id="Raggruppa_10442" transform="translate(162 -949)">
	<rect id="Rettangolo_4" x="-162" y="949" class="st0" width="24" height="24"/>
	<path class="st1" d="M-148.3,968.2h4.2c1,0,1.9-0.4,2.6-1.1c0.7-0.7,1.1-1.6,1.1-2.6c0-1.4-0.8-2.6-2-3.3l-0.5-0.2l0-1.5
		c0-1.9-0.7-3.7-2.1-5s-3.1-2.1-5-2.1c0,0,0,0,0,0c-3.9,0-7.1,3.2-7.1,7.1v1.5l-0.3,0.1c-0.9,0.4-1.6,1.1-2,2.1
		c-0.4,0.9-0.3,1.9,0.1,2.8c0.6,1.3,1.9,2.2,3.4,2.2c0.7,0,1.2-0.5,1.2-1.2v-5c0-0.7-0.5-1.2-1.2-1.2h-0.5v-1.3
		c0-3.5,2.8-6.3,6.3-6.3s6.3,2.8,6.3,6.3v1.3h-0.5c-0.7,0-1.2,0.5-1.2,1.2v5.5h-3c-0.2,0-0.4,0.2-0.4,0.4S-148.5,968.2-148.3,968.2z
		 M-155.8,961.6h0.5v5.9h-0.5c-1.6,0-3-1.3-3-3S-157.5,961.6-155.8,961.6z M-144.6,961.6h0.5c1.6,0,3,1.3,3,3s-1.3,3-3,3h-0.5V961.6
		z"/>
</g>
</svg>
