<?xml version="1.0" encoding="utf-8"?>
<!-- Generator: Adobe Illustrator 26.0.3, SVG Export Plug-In . SVG Version: 6.00 Build 0)  -->
<svg version="1.1" id="Livello_1" xmlns="http://www.w3.org/2000/svg" xmlns:xlink="http://www.w3.org/1999/xlink" x="0px" y="0px"
	 viewBox="0 0 24 24" style="enable-background:new 0 0 24 24;" xml:space="preserve">
<style type="text/css">
	.st0{fill:#FFFFFF;fill-opacity:0;}
	.st1{fill:#333333;}
</style>
<g id="Raggruppa_5" transform="translate(-223 -19)">
	<rect id="Rettangolo_4" x="223" y="19" class="st0" width="24" height="24"/>
	<g id="fi-rr-menu-burger" transform="translate(225 21)">
		<path class="st1" d="M0.8,11h18.3c0.2,0,0.4-0.2,0.4-0.4c0-0.2-0.2-0.4-0.4-0.4H0.8c-0.2,0-0.4,0.2-0.4,0.4
			C0.5,10.9,0.6,11,0.8,11z"/>
		<path class="st1" d="M0.8,5.2h18.3c0.2,0,0.4-0.2,0.4-0.4c0-0.2-0.2-0.4-0.4-0.4H0.8c-0.2,0-0.4,0.2-0.4,0.4
			C0.5,5,0.6,5.2,0.8,5.2z"/>
		<path class="st1" d="M0.8,16.9h18.3c0.2,0,0.4-0.2,0.4-0.4c0-0.2-0.2-0.4-0.4-0.4H0.8c-0.2,0-0.4,0.2-0.4,0.4
			C0.5,16.7,0.6,16.9,0.8,16.9z"/>
	</g>
</g>
</svg>
