<?xml version="1.0" encoding="utf-8"?>
<!-- Generator: Adobe Illustrator 26.0.3, SVG Export Plug-In . SVG Version: 6.00 Build 0)  -->
<svg version="1.1" id="Livello_1" xmlns="http://www.w3.org/2000/svg" xmlns:xlink="http://www.w3.org/1999/xlink" x="0px" y="0px"
	 viewBox="0 0 24 24" style="enable-background:new 0 0 24 24;" xml:space="preserve">
<style type="text/css">
	.st0{fill:#333333;fill-opacity:0;}
	.st1{fill:#333333;}
</style>
<g id="Raggruppa_10597" transform="translate(43 -223) rotate(90)">
	
		<rect id="Rettangolo_4" x="223" y="19" transform="matrix(2.535182e-06 1 -1 2.535182e-06 265.9994 -204.0001)" class="st0" width="24" height="24"/>
	<g id="Raggruppa_10970" transform="translate(0.115 14.965)">
		<path class="st1" d="M231.4,24.8l0-0.1V14.4h-0.9v10.5c0,0.3,0.1,0.5,0.4,0.5l0.2,0C231.3,25.3,231.5,25.1,231.4,24.8z"/>
		<path class="st1" d="M234.8,25c0,0.2,0.1,0.3,0.3,0.4l0.1,0h0.2c0.3-0.1,0.4-0.4,0.4-0.7c0-2.7,0-5.3,0-7.9l0-2.4h-0.9L234.8,25z"
			/>
		<path class="st1" d="M240.2,24.7c0-1.9,0-3.6,0-5.4l0-1.4c-0.3,0-0.6,0-0.9-0.1v7.1c0,0.2,0.1,0.4,0.3,0.5l0.1,0h0.2
			C240.1,25.3,240.3,25,240.2,24.7z"/>
		<path class="st1" d="M243.8,11.4c0.1-0.1,0.2-0.3,0.2-0.4c0,0,0,0,0,0c0-0.1-0.1-0.3-0.2-0.4c-1.2-1.2-2.3-2.4-3.5-3.5
			c-0.2-0.2-0.5-0.2-0.7,0l-0.1,0.1c-0.1,0.1-0.1,0.3-0.1,0.4c0,0.1,0.1,0.3,0.2,0.4l1.1,1.2l1,1.4l-1.7,0.1h-11.9
			c-0.2,0-0.4,0.3-0.4,0.5c0,0.3,0.3,0.5,0.6,0.5l13.8-0.1l-1.4,1.6l0,0l-0.5,0.5c-0.2,0.2-0.4,0.4-0.6,0.6
			c-0.1,0.1-0.2,0.3-0.2,0.4c0,0.1,0.1,0.3,0.2,0.4c0.2,0.2,0.5,0.2,0.7,0C241.5,13.7,242.7,12.6,243.8,11.4z"/>
	</g>
</g>
</svg>
