<?xml version="1.0" encoding="utf-8"?>
<!-- Generator: Adobe Illustrator 26.0.3, SVG Export Plug-In . SVG Version: 6.00 Build 0)  -->
<svg version="1.1" id="Livello_1" xmlns="http://www.w3.org/2000/svg" xmlns:xlink="http://www.w3.org/1999/xlink" x="0px" y="0px"
	 viewBox="0 0 26.9 24" style="enable-background:new 0 0 26.9 24;" xml:space="preserve">
<style type="text/css">
	.st0{fill:#FFFFFF;fill-opacity:0;}
	.st1{fill:#333333;}
</style>
<g id="Raggruppa_11273" transform="translate(1.375)">
	<rect id="Rettangolo_4" x="0" class="st0" width="24" height="24"/>
	<path class="st1" d="M1.4,16.4c0,0.1,0,0.2,0.1,0.2c0.1,0.1,0.2,0.1,0.2,0.1h0c0.1,0,0.2,0,0.2-0.1l7.9-7.9c1.2-1.2,3.2-1.2,4.4,0
		l7.9,7.9c0.1,0.1,0.3,0.1,0.4-0.1c0.1-0.1,0.2-0.3,0-0.5l-7.8-7.8C14,7.6,13,7.2,12,7.2s-1.9,0.4-2.7,1.1l-7.9,7.9
		C1.4,16.3,1.4,16.4,1.4,16.4z"/>
</g>
</svg>
