<?xml version="1.0" encoding="utf-8"?>
<!-- Generator: Adobe Illustrator 26.0.3, SVG Export Plug-In . SVG Version: 6.00 Build 0)  -->
<svg version="1.1" id="Livello_1" xmlns="http://www.w3.org/2000/svg" xmlns:xlink="http://www.w3.org/1999/xlink" x="0px" y="0px"
	 viewBox="0 0 24 24" style="enable-background:new 0 0 24 24;" xml:space="preserve">
<style type="text/css">
	.st0{fill:#FFFFFF;fill-opacity:0;}
	.st1{fill:#333333;}
</style>
<g id="Raggruppa_11268" transform="translate(0 24) rotate(-90)">
	
		<rect id="Rettangolo_4" transform="matrix(-2.535182e-06 -1 1 -2.535182e-06 3.042222e-05 24)" class="st0" width="24" height="24"/>
	<path class="st1" d="M18.3,14.2l-4.6-4.6c-1-1-2.5-1-3.5,0l-4.6,4.6c-0.1,0.2-0.1,0.4,0.1,0.6c0.2,0.1,0.4,0.1,0.6,0l4.6-4.6
		c0.6-0.6,1.6-0.6,2.2,0l4.6,4.6c0.2,0.2,0.5,0.2,0.6,0C18.5,14.7,18.5,14.4,18.3,14.2z"/>
</g>
</svg>
