<?xml version="1.0" encoding="utf-8"?>
<!-- Generator: Adobe Illustrator 26.0.3, SVG Export Plug-In . SVG Version: 6.00 Build 0)  -->
<svg version="1.1" id="Livello_1" xmlns="http://www.w3.org/2000/svg" xmlns:xlink="http://www.w3.org/1999/xlink" x="0px" y="0px"
	 viewBox="0 0 27.1 24" style="enable-background:new 0 0 27.1 24;" xml:space="preserve">
<style type="text/css">
	.st0{fill:#FFFFFF;fill-opacity:0;}
	.st1{fill:#333333;}
</style>
<g id="Raggruppa_11272" transform="translate(-94.408 -132)">
	<rect id="Rettangolo_4" x="96" y="132" class="st0" width="24" height="24"/>
	<path class="st1" d="M97.4,139.8l7.9,7.9c1.5,1.5,3.9,1.5,5.4,0l7.9-7.9c0.1-0.1,0-0.3-0.1-0.4c-0.1-0.1-0.3-0.1-0.5,0l-7.8,7.8
		c-1.2,1.2-3.2,1.2-4.4,0l-7.9-7.9c-0.1-0.1-0.2-0.1-0.2-0.1c-0.1,0-0.2,0-0.2,0.1C97.3,139.5,97.3,139.7,97.4,139.8z"/>
</g>
</svg>
