<?xml version="1.0" encoding="utf-8"?>
<!-- Generator: Adobe Illustrator 26.0.3, SVG Export Plug-In . SVG Version: 6.00 Build 0)  -->
<svg version="1.1" id="Livello_1" xmlns="http://www.w3.org/2000/svg" xmlns:xlink="http://www.w3.org/1999/xlink" x="0px" y="0px"
	 viewBox="0 0 24 24" style="enable-background:new 0 0 24 24;" xml:space="preserve">
<style type="text/css">
	.st0{fill:#FFFFFF;fill-opacity:0;}
	.st1{fill:#5D5D5D;}
</style>
<g id="Raggruppa_10679" transform="translate(-645 -4961)">
	<rect id="Rettangolo_4" x="645" y="4961" class="st0" width="24" height="24"/>
	<g id="fi-rr-trash" transform="translate(646 4962.2)">
		<path class="st1" d="M8.3,21.1h5.4c2.2,0,4-1.8,4-4V4.9h1.4c0.2,0,0.4-0.2,0.4-0.4s-0.2-0.4-0.4-0.4h-3.2l-0.1-0.4
			c-0.4-1.9-2-3.2-3.9-3.2h-1.8c-1.9,0-3.5,1.3-3.9,3.2L6.1,4.1H2.9c-0.1,0-0.2,0-0.3,0.1C2.5,4.3,2.5,4.4,2.5,4.5
			c0,0.2,0.2,0.4,0.4,0.4h1.4v12.2C4.3,19.3,6.1,21.1,8.3,21.1z M7.1,3.4c0.5-1.3,1.7-2.1,3-2.1h1.8c1.4,0,2.6,0.9,3,2.1l0.2,0.7
			H6.8L7.1,3.4z M5.1,4.9h11.8v12.2c0,1.8-1.4,3.2-3.2,3.2H8.3c-1.8,0-3.2-1.4-3.2-3.2V4.9z"/>
		<path class="st1" d="M9.6,15.3V9.9c0-0.2-0.2-0.4-0.4-0.4S8.8,9.7,8.8,9.9v5.4c0,0.2,0.2,0.4,0.4,0.4S9.6,15.5,9.6,15.3z"/>
		<path class="st1" d="M12.8,9.5c-0.2,0-0.4,0.2-0.4,0.4v5.4c0,0.2,0.2,0.4,0.4,0.4s0.4-0.2,0.4-0.4V9.9C13.2,9.7,13,9.5,12.8,9.5z"
			/>
	</g>
</g>
</svg>
