<?xml version="1.0" encoding="utf-8"?>
<!-- Generator: Adobe Illustrator 26.0.3, SVG Export Plug-In . SVG Version: 6.00 Build 0)  -->
<svg version="1.1" id="Livello_1" xmlns="http://www.w3.org/2000/svg" xmlns:xlink="http://www.w3.org/1999/xlink" x="0px" y="0px"
	 viewBox="0 0 24 24" style="enable-background:new 0 0 24 24;" xml:space="preserve">
<style type="text/css">
	.st0{fill:#FFFFFF;fill-opacity:0;}
	.st1{fill:#103556;}
</style>
<g id="Raggruppa_10679" transform="translate(-645 -4961)">
	<rect id="Rettangolo_4" x="645" y="4961" class="st0" width="24" height="24"/>
	<g>
		<path class="st1" d="M658.7,4966.8c-0.2,0-0.4,0.1-0.4,0.3c0,0.1,0,0.2,0.1,0.2c0.1,0.1,0.1,0.1,0.2,0.1l0,0
			c2.1,0,3.8,1.7,3.8,3.8c0,0.1,0,0.2,0.1,0.3c0.1,0.1,0.1,0.1,0.2,0.1c0.1,0,0.2,0,0.2-0.1s0.1-0.1,0.1-0.2
			C663.2,4968.9,661.1,4966.8,658.7,4966.8z"/>
		<path class="st1" d="M652.4,4977.8c3.9,3.8,9.5,6.5,12.7,3.4l0.7-0.8c0.8-0.8,0.8-2.1,0-3c-0.2-0.2-2-1.5-2-1.5
			c-0.8-0.8-2.1-0.8-2.9,0l-1.5,1.2l-0.3-0.1c-2.7-1.1-4.9-3.3-6.1-6.1l-0.1-0.3l1.2-1.4c0.8-0.8,0.8-2.1,0-2.9c0,0-1.5-1.9-1.6-2.1
			c-0.4-0.4-0.9-0.6-1.4-0.6c-0.5,0-1,0.2-1.5,0.6l-1,0.9C645.8,4968.1,648.4,4973.8,652.4,4977.8z M650.2,4964.6
			c0.5-0.5,1.4-0.5,1.9,0c0.1,0.1,1.5,2,1.6,2.1c0.5,0.5,0.5,1.4,0,2c-0.1,0.1-1.3,1.7-1.3,1.7c-0.1,0.1-0.1,0.2,0,0.3
			c1.2,3.3,3.8,5.9,7.1,7.1c0.1,0,0.2,0,0.3,0c0,0,1.6-1.3,1.7-1.4c0.5-0.5,1.4-0.5,2,0c0.1,0.1,2,1.5,2,1.5l0.1,0.1
			c0.5,0.6,0.5,1.5-0.1,2l-0.7,0.8c-0.8,0.8-1.9,1.1-3,1.1c-2.6,0-5.8-1.9-8.4-4.3c-3.8-3.6-6.7-8.9-4-12.1L650.2,4964.6z"/>
		<path class="st1" d="M658.7,4963.5c-0.2,0-0.3,0.1-0.3,0.3c0,0.2,0.2,0.3,0.3,0.3c4,0,7.2,3.2,7.2,7.2c0,0.2,0.1,0.3,0.3,0.3
			c0.2,0,0.3-0.1,0.3-0.3C666.5,4967,663,4963.5,658.7,4963.5z"/>
	</g>
</g>
</svg>
