<?xml version="1.0" encoding="utf-8"?>
<!-- Generator: Adobe Illustrator 26.0.3, SVG Export Plug-In . SVG Version: 6.00 Build 0)  -->
<svg version="1.1" id="Raggruppa_11530" xmlns="http://www.w3.org/2000/svg" xmlns:xlink="http://www.w3.org/1999/xlink" x="0px"
	 y="0px" viewBox="0 0 20 20" style="enable-background:new 0 0 20 20;" xml:space="preserve">
<style type="text/css">
	.st0{clip-path:url(#SVGID_00000084518183562814695020000008748098019535919278_);}
	.st1{fill:#292929;}
</style>
<g>
	<defs>
		<rect id="SVGID_1_" width="20" height="20"/>
	</defs>
	<clipPath id="SVGID_00000017486912043353265380000017378611256959643838_">
		<use xlink:href="#SVGID_1_"  style="overflow:visible;"/>
	</clipPath>
	<g id="Raggruppa_11529" style="clip-path:url(#SVGID_00000017486912043353265380000017378611256959643838_);">
		<path class="st1" d="M20,1.8L20,1.8C20,1.8,20,1.8,20,1.8l0.1,0l0-0.1c0-0.1,0-0.2-0.1-0.3c-0.2-0.8-0.9-1.3-1.7-1.5
			c0,0-0.1,0-0.1,0l-16.4,0l-0.1,0C1.6-0.1,1.5,0,1.4,0C0.5,0.3-0.1,1.2-0.1,2.1v7.5c0,2.7,0,5.5,0,8.2c0,0.9,0.5,1.7,1.3,2.1
			c0.2,0.1,0.4,0.1,0.6,0.2l16.4,0l0.1,0c0.1,0,0.2,0,0.3-0.1c0.8-0.2,1.3-0.9,1.5-1.7c0,0,0,0,0-0.1l0-0.1l0-16.4H20z M18,1
			c0.6,0.1,1.1,0.6,1,1.2v7.2h-8.5V1l7.2,0C17.8,0.9,17.9,0.9,18,1z M10.5,19v-8.5H19l0,7.2c0,0.1,0,0.1,0,0.2
			c-0.1,0.6-0.6,1.1-1.3,1H10.5z M19.1,10.4L19.1,10.4L19.1,10.4L19.1,10.4L19.1,10.4L19.1,10.4z M1,2c0-0.3,0.2-0.6,0.4-0.8
			C1.6,1,1.9,0.9,2.2,1h7.2v8.5H1l0-7.2C0.9,2.1,0.9,2.1,1,2z M1,10.6h8.5V19H2.2c-0.1,0-0.1,0-0.2,0c-0.6-0.1-1.1-0.6-1-1.2V10.6z"
			/>
		<path class="st1" d="M17.1,5.2C17,5,16.8,4.9,16.6,4.9l-3.3,0c0,0-0.1,0-0.1,0c-0.1,0-0.3,0.1-0.4,0.2c-0.1,0.1-0.1,0.2-0.1,0.4
			c0,0,0,0,0,0c0,0.1,0.1,0.3,0.2,0.4C13.1,5.9,13.2,6,13.3,6c0,0,0,0,0,0H15v0l0.4,0c0.4,0,0.8,0,1.2,0c0.2,0,0.3-0.1,0.5-0.2
			C17.2,5.6,17.2,5.4,17.1,5.2z"/>
		<path class="st1" d="M7,5C6.9,4.9,6.8,4.9,6.6,4.9H5.5l0-0.3c0-0.3,0-0.5,0-0.8c0-0.3-0.2-0.5-0.5-0.5S4.4,3.5,4.4,3.8
			c0,0.2,0,0.4,0,0.6l0,0.5H3.4c0,0,0,0-0.1,0C3.2,4.9,3,4.9,2.9,5.1S2.8,5.3,2.8,5.4l0,0C2.8,5.8,3.1,6,3.4,6h1c0,0,0.1,0,0.1,0
			v0.7c0,0.2,0,0.3,0,0.5c0,0.3,0.3,0.5,0.5,0.5c0,0,0,0,0,0c0.3,0,0.5-0.2,0.5-0.5c0-0.1,0-0.2,0-0.3V6h1.1C7,6,7.2,5.7,7.2,5.4
			C7.2,5.3,7.1,5.1,7,5z M2.9,5.5L2.9,5.5L2.9,5.5L2.9,5.5z"/>
		<path class="st1" d="M6.6,15.9c-0.2-0.2-0.3-0.3-0.5-0.5l-0.2-0.2c0,0-0.1-0.1-0.1-0.1l0.2-0.2c0.2-0.2,0.4-0.4,0.6-0.6
			c0.2-0.2,0.2-0.5,0-0.8c-0.2-0.2-0.5-0.2-0.8,0c-0.2,0.2-0.4,0.4-0.7,0.7L5,14.2c0,0,0,0-0.1-0.1l-0.1-0.1
			c-0.2-0.2-0.5-0.5-0.7-0.7c-0.2-0.2-0.5-0.2-0.7-0.1c0,0-0.1,0.1-0.1,0.1c-0.1,0.1-0.1,0.2-0.1,0.4c0,0.1,0.1,0.3,0.2,0.4
			c0.2,0.2,0.4,0.4,0.6,0.6L4.2,15L4,15.2c-0.2,0.2-0.4,0.4-0.6,0.6c0,0,0,0,0,0c-0.1,0.1-0.1,0.2-0.1,0.4s0.1,0.3,0.2,0.4
			c0.1,0.1,0.2,0.2,0.4,0.1c0.1,0,0.3-0.1,0.4-0.2c0.2-0.2,0.3-0.3,0.5-0.5L5,15.8l0,0c0.1,0.1,0.2,0.2,0.4,0.4l0.1,0.1
			c0.1,0.1,0.2,0.2,0.4,0.4c0,0,0,0,0,0c0.1,0.1,0.2,0.1,0.4,0.1c0,0,0,0,0,0c0.1,0,0.3-0.1,0.4-0.2s0.1-0.2,0.1-0.4
			S6.7,16,6.6,15.9z M4.4,15C4.4,15,4.4,15,4.4,15L4.4,15L4.4,15L4.4,15z M3.4,16L3.4,16L3.4,16L3.4,16z"/>
		<path class="st1" d="M17.2,13.6c-0.1-0.3-0.3-0.5-0.6-0.4H15v0.1l0,0c0,0,0,0,0,0v-0.1l-0.5,0c-0.4,0-0.7,0-1.1,0
			c-0.1,0-0.1,0-0.2,0c-0.1,0-0.3,0.1-0.4,0.2s-0.1,0.3-0.1,0.4c0,0.3,0.3,0.5,0.6,0.5h2.5c0.2,0,0.3,0,0.5,0c0.1,0,0.2,0,0.2,0
			c0.1,0,0.1,0,0.2,0C17,14.2,17.2,13.9,17.2,13.6z"/>
		<path class="st1" d="M16.5,15.7h-3.1c-0.1,0-0.1,0-0.2,0c-0.2,0-0.4,0.2-0.5,0.5c0,0.3,0.2,0.6,0.5,0.6c0.1,0,0.1,0,0.2,0
			c0,0,0,0,0,0H15v-0.1l0,0c0,0,0,0,0,0v0.1h1.6c0.2,0,0.4-0.1,0.5-0.2c0.1-0.1,0.1-0.3,0.1-0.4C17.1,15.9,16.9,15.7,16.5,15.7z"/>
	</g>
</g>
</svg>
